<?xml version="1.0" encoding="UTF-8"?>
<svg width="117px" height="100px" viewBox="0 0 117 100" version="1.1" xmlns="http://www.w3.org/2000/svg" xmlns:xlink="http://www.w3.org/1999/xlink">
    <!-- Generator: Sketch 51.3 (57544) - http://www.bohemiancoding.com/sketch -->
    <title>big_camera</title>
    <desc>Created with Sketch.</desc>
    <defs></defs>
    <g id="Main_page" stroke="none" stroke-width="1" fill="none" fill-rule="evenodd">
        <g id="3" transform="translate(-1009.000000, -284.000000)" fill="#12284C" fill-rule="nonzero">
            <g id="Group-15" transform="translate(132.000000, 202.000000)">
                <g id="Group-18" transform="translate(744.000000, 82.000000)">
                    <path d="M248.5998,32.0474174 L162.48039,0.132392036 C161.37887,-0.274771647 160.155058,0.288650085 159.748906,1.39138512 C159.748014,1.39227796 159.748014,1.39317081 159.747121,1.39406365 L150.213706,27.3516414 C149.808447,28.4543764 150.373489,29.6776532 151.475901,30.0830312 L151.477687,30.0830312 L161.460101,33.74929 L159.260631,39.7433468 C158.856265,40.8460816 159.421307,42.0675726 160.523719,42.4729506 L180.492118,49.8063614 L179.024615,53.8021015 C177.691008,57.380856 178.935351,61.4096335 182.056027,63.6106389 L182.056027,74.4683371 L153.436143,74.4683371 C152.050763,71.3003179 149.215732,69.0002002 145.829942,68.2983785 L145.829942,63.8302931 C145.829942,62.6552327 144.878385,61.7025056 143.702776,61.7025056 L135.127166,61.7025056 C133.952449,61.7025056 133,62.6552327 133,63.8302931 L133,97.8722128 C133,99.0481657 133.952449,100 135.127166,100 L143.702776,100 C144.878385,100 145.829942,99.0481657 145.829942,97.8722128 L145.829942,93.4050199 C149.215732,92.7023054 152.050763,90.4030808 153.436143,87.2341685 L182.056027,87.2341685 L182.056027,89.361956 C182.056027,92.8871363 184.912481,95.7453182 188.436631,95.7453182 C191.960781,95.7453182 194.818128,92.8871363 194.818128,89.361956 L194.818128,65.7920005 C196.75159,64.8330227 198.24498,63.1695447 198.989443,61.1426555 L200.456946,57.1469153 L218.427613,63.7427885 C218.662377,63.8294 218.909639,63.8731524 219.159579,63.8731524 C220.051328,63.8731524 220.84935,63.3168739 221.157311,62.4793309 L221.95444,60.3068984 C228.875986,61.6096437 235.542235,57.0531606 236.843707,50.1304851 C237.324841,47.5723186 237.012416,44.9284332 235.948387,42.5533117 L248.842599,35.9306516 C249.887883,35.3949099 250.301176,34.1127015 249.765591,33.0671123 C249.522792,32.592088 249.110392,32.2259979 248.610512,32.041167 L248.5998,32.0474174 Z M186,66 L187.655896,66.6442087 C188.409568,66.9343277 189.200168,67.101011 190,67.1379516 L190,75 L186,75 L186,66 Z M141,96 L137,96 L137,66 L141,66 L141,96 Z M150,83.0894345 C149.996643,85.7444104 148.3953,88.1109164 146,89 L146,73 C148.3953,73.8882071 149.996643,76.2547128 150,78.9105657 L150,83.0894345 Z M154,79 L190,79 L190,83 L154,83 L154,79 Z M188,91 C186.89551,91 186,90.1044901 186,89 L186,87 L190,87 L190,89 C190,90.1044901 189.10449,91 188,91 Z M197,55.3283583 L195.502067,59.2588379 C194.674742,61.4265303 192.18092,62.5384826 189.930376,61.7427253 L185.846595,60.3005247 C183.596051,59.5038889 182.440711,57.0990503 183.267126,54.9287229 C183.267126,54.9287229 183.267126,54.9287229 183.267126,54.9278446 L184.76597,51 L195.770857,54.8944684 L197,55.3283583 Z M217.624518,59 L164,39.0295652 L165.460566,35 L197.236085,46.833865 C197.988121,47.1112069 198.831609,46.9374179 199.416723,46.3827336 L205.353989,40.7143285 L222,46.9149064 L217.624518,59 Z M231.514312,51.3143225 C230.214614,55.0231102 226.719201,57.3407608 223,56.9590408 L226.169197,47.821448 L231.345609,45 C232.155553,47.0060798 232.215804,49.2636025 231.514312,51.3143225 Z M225.441226,43.940371 C225.328302,43.9503092 225.216275,43.9701856 225.106039,44 L206.065811,36.9520468 C205.306712,36.6710682 204.455301,36.8454374 203.865587,37.4037805 L197.865383,43.0920146 L155,27.2235041 L163.096466,5 L243,34.8424491 L225.441226,43.940371 Z M172,28.6570216 L175.656802,30 L177,26.3429787 L173.342381,25 L172,28.6570216 Z M180,31.6576195 L183.656802,33 L185,29.3431982 L181.342381,28 L180,31.6576195 Z M188,34.6570213 L191.656802,36 L193,32.3429787 L189.343198,31 L188,34.6570213 Z" id="big_camera" transform="translate(191.500000, 50.000000) scale(-1, 1) translate(-191.500000, -50.000000) "></path>
                </g>
            </g>
        </g>
    </g>
</svg>