<?xml version="1.0" encoding="UTF-8"?>
<svg width="138px" height="138px" viewBox="0 0 138 138" version="1.1" xmlns="http://www.w3.org/2000/svg" xmlns:xlink="http://www.w3.org/1999/xlink">
    <!-- Generator: Sketch 51.3 (57544) - http://www.bohemiancoding.com/sketch -->
    <title>car</title>
    <desc>Created with Sketch.</desc>
    <defs></defs>
    <g id="Main_page" stroke="none" stroke-width="1" fill="none" fill-rule="evenodd">
        <g id="2" transform="translate(-1023.000000, -253.000000)" fill="#12284C" fill-rule="nonzero">
            <g id="Group-15" transform="translate(132.000000, 202.000000)">
                <g id="Group-18" transform="translate(744.000000, 51.000000)">
                    <g id="car" transform="translate(147.000000, 0.000000)">
                        <path d="M56.5906784,62.9745618 L60.4684655,66.852349 L57.7771603,66.852349 L44.7114094,69.2065855 L44.7114094,79.6040268 L44.992974,79.6040268 C45.8717491,76.5089136 48.7209522,74.2348993 52.0939597,74.2348993 C55.4669672,74.2348993 58.3161703,76.5089136 59.1949455,79.6040268 L73.2201434,79.6040268 L77.246989,83.6308725 L59.1949455,83.6308725 C58.3161703,86.7259858 55.466443,89 52.0939597,89 C48.7209522,89 45.8717491,86.7259858 44.9924497,83.6308725 L38,83.6308725 L38,79.6040268 L40.6845638,79.6040268 L40.6845638,65.8403944 L56.5906784,62.9745618 Z M63.075125,54.6912415 L67.3309564,49 L92.6030831,49 L96.6152475,58.1275168 L106.724832,58.1275168 L106.724832,72.8926174 L98.6711409,72.8926174 L98.6711409,79.6040268 L101.355705,79.6040268 L101.355705,83.6308725 L94.3627307,83.6308725 C94.1972418,84.2137373 93.9618744,84.7674829 93.6662898,85.2824063 L90.5693604,82.1854769 C90.6009772,82.0007953 90.6174497,81.8110101 90.6174497,81.6174497 C90.6174497,79.7670932 89.1121015,78.261745 87.261745,78.261745 C87.0681845,78.261745 86.8783994,78.2782175 86.6937177,78.3098342 L83.5956259,75.2117424 C84.6761388,74.5904566 85.9279918,74.2348993 87.261745,74.2348993 C90.6347525,74.2348993 93.4839556,76.5089136 94.3627307,79.6040268 L94.6442953,79.6040268 L94.6442953,66.852349 L75.2362325,66.852349 L71.2093868,62.8255034 L94.2814597,62.8255034 L89.9740981,53.0268456 L69.3401846,53.0268456 L65.9347915,57.550908 L63.075125,54.6912415 Z M102.697987,68.8657718 L102.697987,62.1543624 L98.6711409,62.1543624 L98.6711409,68.8657718 L102.697987,68.8657718 Z M52.0939597,84.9731544 C53.9443162,84.9731544 55.4496644,83.4678062 55.4496644,81.6174497 C55.4496644,79.7670932 53.9443162,78.261745 52.0939597,78.261745 C50.2436032,78.261745 48.738255,79.7670932 48.738255,81.6174497 C48.738255,83.4678062 50.2436032,84.9731544 52.0939597,84.9731544 Z" id="Combined-Shape"></path>
                        <rect id="Rectangle-7" transform="translate(69.500000, 68.500000) rotate(-45.000000) translate(-69.500000, -68.500000) " x="67" y="2" width="5" height="133"></rect>
                        <path d="M69,133 C104.346224,133 133,104.346224 133,69 C133,33.653776 104.346224,5 69,5 C33.653776,5 5,33.653776 5,69 C5,104.346224 33.653776,133 69,133 Z M69,138 C30.8923523,138 0,107.107648 0,69 C0,30.8923523 30.8923523,0 69,0 C107.107648,0 138,30.8923523 138,69 C138,107.107648 107.107648,138 69,138 Z" id="Oval"></path>
                    </g>
                </g>
            </g>
        </g>
    </g>
</svg>