<?xml version="1.0" encoding="UTF-8"?>
<svg width="95px" height="95px" viewBox="0 0 95 95" version="1.1" xmlns="http://www.w3.org/2000/svg" xmlns:xlink="http://www.w3.org/1999/xlink">
    <!-- Generator: Sketch 51.3 (57544) - http://www.bohemiancoding.com/sketch -->
    <title>closed_territory</title>
    <desc>Created with Sketch.</desc>
    <defs></defs>
    <g id="Main_page" stroke="none" stroke-width="1" fill="none" fill-rule="evenodd">
        <g id="1" transform="translate(-1045.000000, -284.000000)" fill="#12284C" fill-rule="nonzero">
            <g id="Group-15" transform="translate(132.000000, 202.000000)">
                <g id="Group-18" transform="translate(744.000000, 82.000000)">
                    <path d="M256.476924,41.8901054 C251.282571,40.9546192 246.358167,37.9011869 244.482169,36.6318551 C242.646376,35.3898051 240.509763,34.7336008 238.302791,34.7336008 C236.096538,34.7336008 233.959925,35.3898051 232.124132,36.6318551 C230.248134,37.9011869 225.323012,40.9546192 220.128659,41.8901054 C216.289791,42.5822071 213.503436,45.915639 213.503436,49.8176858 L213.503436,63.0257731 C213.503436,82.5525198 235.851717,92.772508 236.802998,93.198251 L238.302791,93.8688143 L239.803303,93.198251 C240.754584,92.772508 263.102865,82.5525198 263.102865,63.0257731 L263.102865,49.8176858 C263.102865,45.915639 260.31651,42.5822071 256.476924,41.8901054 Z M255.754669,63.0257731 C255.754669,75.288323 242.774171,83.3264677 238.297766,85.733029 C233.81131,83.3350829 220.850914,75.3400152 220.850914,63.0257731 L220.850914,49.8176858 C220.850914,49.4752247 221.095017,49.1830199 221.431016,49.1219944 C227.76906,47.9804573 233.430797,44.6197431 236.241563,42.7186171 C236.856845,42.3014895 237.569767,42.0817975 238.302791,42.0817975 C239.035816,42.0817975 239.748739,42.3022074 240.364738,42.7186171 C243.175504,44.6197431 248.836523,47.9804573 255.174567,49.1219944 C255.510566,49.1830199 255.754669,49.4752247 255.754669,49.8176858 L255.754669,63.0257731 Z M220.560863,91.3122019 C221.734708,92.3194828 222.905681,93.2384561 224.038603,94.0698397 L189.254028,94.0698397 C183.176599,94.0698397 178.232092,89.1246146 178.232092,83.0471858 L178.232092,44.4696921 L173.952404,48.3738926 L169,42.9454887 L216.074407,0 L246.093244,27.3854042 L235.190487,27.3854042 L216.074407,9.94645011 L185.580289,37.7669306 L185.580289,83.0471858 C185.580289,85.0732348 187.227979,86.7216432 189.254028,86.7216432 L215.851125,86.7216432 C217.271944,88.3032822 218.841378,89.836101 220.560863,91.3122019 Z" id="closed_territory"></path>
                </g>
            </g>
        </g>
    </g>
</svg>