<?xml version="1.0" encoding="UTF-8"?>
<svg width="91px" height="102px" viewBox="0 0 91 102" version="1.1" xmlns="http://www.w3.org/2000/svg" xmlns:xlink="http://www.w3.org/1999/xlink">
    <!-- Generator: Sketch 51.3 (57544) - http://www.bohemiancoding.com/sketch -->
    <title>heat</title>
    <desc>Created with Sketch.</desc>
    <defs></defs>
    <g id="Main_page" stroke="none" stroke-width="1" fill="none" fill-rule="evenodd">
        <g id="6" transform="translate(-1047.000000, -283.000000)" fill="#12284C" fill-rule="nonzero">
            <g id="Group-15" transform="translate(132.000000, 202.000000)">
                <g id="Group-18" transform="translate(637.000000, 19.000000)">
                    <path d="M313.116702,66.3476239 C314.217209,68.0123304 315.586957,70.084163 315.586957,73.9684783 C315.586957,77.8527935 314.217209,79.9246261 313.116702,81.5893326 C312.221539,82.9428587 311.630435,83.8370326 311.630435,85.9369565 L305.695652,85.9369565 C305.695652,82.0526413 307.0654,79.9808087 308.165907,78.3161022 C309.06107,76.9625761 309.652174,76.0684022 309.652174,73.9684783 C309.652174,71.8685543 309.06107,70.9743804 308.165907,69.6208543 C307.0654,67.9561478 305.695652,65.8843152 305.695652,62 L311.630435,62 C311.630435,64.0999239 312.221539,64.9940978 313.116702,66.3476239 Z M301.247137,66.3476239 C302.347643,68.0123304 303.717391,70.084163 303.717391,73.9684783 C303.717391,77.8527935 302.347643,79.9246261 301.247137,81.5893326 C300.351974,82.9428587 299.76087,83.8370326 299.76087,85.9369565 L293.826087,85.9369565 C293.826087,82.0526413 295.195835,79.9808087 296.296341,78.3161022 C297.191504,76.9625761 297.782609,76.0684022 297.782609,73.9684783 C297.782609,71.8685543 297.191504,70.9743804 296.296341,69.6208543 C295.195835,67.9561478 293.826087,65.8843152 293.826087,62 L299.76087,62 C299.76087,64.0999239 300.351974,64.9940978 301.247137,66.3476239 Z M324.986267,66.3476239 C326.086774,68.0123304 327.456522,70.084163 327.456522,73.9684783 C327.456522,77.8527935 326.086774,79.9246261 324.986267,81.5893326 C324.091104,82.9428587 323.5,83.8370326 323.5,85.9369565 L317.565217,85.9369565 C317.565217,82.0526413 318.934965,79.9808087 320.035472,78.3161022 C320.930635,76.9625761 321.521739,76.0684022 321.521739,73.9684783 C321.521739,71.8685543 320.930635,70.9743804 320.035472,69.6208543 C318.934965,67.9561478 317.565217,65.8843152 317.565217,62 L323.5,62 C323.5,64.0999239 324.091104,64.9940978 324.986267,66.3476239 Z M336.855833,66.3476239 C337.956339,68.0123304 339.326087,70.084163 339.326087,73.9684783 C339.326087,77.8527935 337.956339,79.9246261 336.855833,81.5893326 C335.96067,82.9428587 335.369565,83.8370326 335.369565,85.9369565 L329.434783,85.9369565 C329.434783,82.0526413 330.80453,79.9808087 331.905037,78.3161022 C332.8002,76.9625761 333.391304,76.0684022 333.391304,73.9684783 C333.391304,71.8685543 332.8002,70.9743804 331.905037,69.6208543 C330.80453,67.9561478 329.434783,65.8843152 329.434783,62 L335.369565,62 C335.369565,64.0999239 335.96067,64.9940978 336.855833,66.3476239 Z M348.725398,66.3476239 C349.825904,68.0123304 351.195652,70.084163 351.195652,73.9684783 C351.195652,77.8527935 349.825904,79.9246261 348.725398,81.5893326 C347.830235,82.9428587 347.23913,83.8370326 347.23913,85.9369565 L341.304348,85.9369565 C341.304348,82.0526413 342.674096,79.9808087 343.774602,78.3161022 C344.669765,76.9625761 345.26087,76.0684022 345.26087,73.9684783 C345.26087,71.8685543 344.669765,70.9743804 343.774602,69.6208543 C342.674096,67.9561478 341.304348,65.8843152 341.304348,62 L347.23913,62 C347.23913,64.0999239 347.830235,64.9940978 348.725398,66.3476239 Z M363.065217,98.5978261 L369,98.5978261 L369,111.654348 L355.152174,111.654348 L355.152174,152.406522 C355.152174,158.405993 350.271211,163.286957 344.271739,163.286957 C341.155978,163.286957 338.344078,161.968446 336.358696,159.862587 C334.373313,161.968446 331.561413,163.286957 328.445652,163.286957 C325.329891,163.286957 322.517991,161.968446 320.532609,159.862587 C318.547226,161.968446 315.735326,163.286957 312.619565,163.286957 C309.503804,163.286957 306.691904,161.968446 304.706522,159.862587 C302.721139,161.968446 299.909239,163.286957 296.793478,163.286957 C290.794007,163.286957 285.913043,158.405993 285.913043,152.406522 L285.913043,111.654348 L278,111.654348 L278,105.719565 L285.913043,105.719565 L285.913043,102.752174 C285.913043,96.7527022 290.794007,91.8717391 296.793478,91.8717391 C299.909239,91.8717391 302.721139,93.19025 304.706522,95.2961087 C306.691904,93.19025 309.503804,91.8717391 312.619565,91.8717391 C315.735326,91.8717391 318.547226,93.19025 320.532609,95.2961087 C322.517991,93.19025 325.329891,91.8717391 328.445652,91.8717391 C331.561413,91.8717391 334.373313,93.19025 336.358696,95.2961087 C338.344078,93.19025 341.155978,91.8717391 344.271739,91.8717391 C350.271211,91.8717391 355.152174,96.7527022 355.152174,102.752174 L355.152174,105.719565 L363.065217,105.719565 L363.065217,98.5978261 Z M301.73913,152.406522 L301.73913,102.752174 C301.73913,100.025141 299.520511,97.8065217 296.793478,97.8065217 C294.066446,97.8065217 291.847826,100.025141 291.847826,102.752174 L291.847826,152.406522 C291.847826,155.133554 294.066446,157.352174 296.793478,157.352174 C299.520511,157.352174 301.73913,155.133554 301.73913,152.406522 Z M317.565217,152.406522 L317.565217,102.752174 C317.565217,100.025141 315.346598,97.8065217 312.619565,97.8065217 C309.892533,97.8065217 307.673913,100.025141 307.673913,102.752174 L307.673913,152.406522 C307.673913,155.133554 309.892533,157.352174 312.619565,157.352174 C315.346598,157.352174 317.565217,155.133554 317.565217,152.406522 Z M333.391304,152.406522 L333.391304,102.752174 C333.391304,100.025141 331.172685,97.8065217 328.445652,97.8065217 C325.71862,97.8065217 323.5,100.025141 323.5,102.752174 L323.5,152.406522 C323.5,155.133554 325.71862,157.352174 328.445652,157.352174 C331.172685,157.352174 333.391304,155.133554 333.391304,152.406522 Z M349.217391,152.406522 L349.217391,102.752174 C349.217391,100.025141 346.998772,97.8065217 344.271739,97.8065217 C341.544707,97.8065217 339.326087,100.025141 339.326087,102.752174 L339.326087,152.406522 C339.326087,155.133554 341.544707,157.352174 344.271739,157.352174 C346.998772,157.352174 349.217391,155.133554 349.217391,152.406522 Z" id="heat"></path>
                </g>
            </g>
        </g>
    </g>
</svg>