<?xml version="1.0" encoding="UTF-8"?>
<svg width="110px" height="110px" viewBox="0 0 110 110" version="1.1" xmlns="http://www.w3.org/2000/svg" xmlns:xlink="http://www.w3.org/1999/xlink">
    <!-- Generator: Sketch 51.3 (57544) - http://www.bohemiancoding.com/sketch -->
    <title>sport</title>
    <desc>Created with Sketch.</desc>
    <defs></defs>
    <g id="Main_page" stroke="none" stroke-width="1" fill="none" fill-rule="evenodd">
        <g id="5" transform="translate(-1037.000000, -274.000000)" fill="#12284C" fill-rule="nonzero">
            <g id="Group-15" transform="translate(132.000000, 202.000000)">
                <g id="Group-18" transform="translate(637.000000, 19.000000)">
                    <path d="M324.932271,63.5179283 L324.932271,70.6759628 L293.01992,70.6759628 L293.01992,63.5179283 L289.474104,63.5179283 L289.474104,72.4654714 C289.474104,73.5391766 290.183267,74.2549801 291.247012,74.2549801 L298.338645,74.2549801 C298.338645,80.1603586 303.125498,84.9920319 308.976096,84.9920319 C314.826693,84.9920319 319.613546,80.1603586 319.613546,74.2549801 L326.705179,74.2549801 C327.768924,74.2549801 328.478088,73.5391766 328.478088,72.4654714 L328.478088,63.5179283 L324.932271,63.5179283 Z M326.705179,141.74502 L319.613546,141.74502 C319.613546,135.839641 314.826693,131.007968 308.976096,131.007968 C303.125498,131.007968 298.338645,135.839641 298.338645,141.74502 L291.247012,141.74502 C290.183267,141.74502 289.474104,142.460823 289.474104,143.534529 L289.474104,152.482072 L293.01992,152.482072 L293.01992,145.324037 L324.932271,145.324037 L324.932271,152.482072 L328.478088,152.482072 L328.478088,143.534529 C328.478088,142.460823 327.768924,141.74502 326.705179,141.74502 Z M346.007968,147.064432 L344.234111,147.064432 C338.380383,147.064432 333.590969,151.858703 333.590969,157.718368 L333.590969,159.494024 L321.173971,159.494024 L321.173971,150.615744 C321.173971,149.55035 320.464428,148.840088 319.400114,148.840088 L298.11383,148.840088 C297.049516,148.840088 296.339973,149.55035 296.339973,150.615744 L296.339973,159.494024 L283.922975,159.494024 L283.922975,157.718368 C283.922975,151.858703 279.133561,147.064432 273.279833,147.064432 L271.505976,147.064432 L271.505976,109.775656 L296.517359,109.775656 C297.581673,116.523149 303.790173,121.31742 310.530829,120.252026 C317.271485,119.186633 322.060899,112.971837 320.996585,106.224344 C319.932271,99.4768512 313.723772,94.68258 306.983115,95.7479736 C301.484159,96.458236 297.226902,100.897376 296.517359,106.224344 L271.505976,106.224344 L271.505976,68.9355681 L273.279833,68.9355681 C279.133561,68.9355681 283.922975,64.1412969 283.922975,58.2816321 L283.922975,56.5059761 L296.339973,56.5059761 L296.339973,65.3842561 C296.339973,66.4496497 297.049516,67.1599121 298.11383,67.1599121 L319.400114,67.1599121 C320.464428,67.1599121 321.173971,66.4496497 321.173971,65.3842561 L321.173971,56.5059761 L333.590969,56.5059761 L333.590969,58.2816321 C333.590969,64.1412969 338.380383,68.9355681 344.234111,68.9355681 L346.007968,68.9355681 L346.007968,81.5427256 C330.398027,83.4959472 319.400114,97.7011952 321.351356,113.149402 C322.947828,126.111691 333.058812,136.410496 346.007968,138.008586 L346.007968,147.064432 Z M349.612903,81.3870968 L349.612903,54.7741935 C349.612903,53.7096774 348.903226,53 347.83871,53 L269.774194,53 C268.709677,53 268,53.7096774 268,54.7741935 L268,161.225806 C268,162.290323 268.709677,163 269.774194,163 L347.83871,163 C348.903226,163 349.612903,162.290323 349.612903,161.225806 L349.612903,138.16129 C365.225806,138.16129 378,125.387097 378,109.774194 C378,94.1612903 365.225806,81.3870968 349.612903,81.3870968 Z M308.756972,81.4860558 C304.900398,81.4860558 301.74502,78.3306773 301.74502,74.4741036 L315.768924,74.4741036 C315.768924,78.3306773 312.613546,81.4860558 308.756972,81.4860558 Z M301.74502,141.525896 C301.74502,137.669323 304.900398,134.513944 308.756972,134.513944 C312.613546,134.513944 315.768924,137.669323 315.768924,141.525896 L301.74502,141.525896 Z M368.863214,94.1952191 C370.762284,96.6755107 372.143426,99.5101297 373.179283,102.521912 L370.071713,102.521912 L367.482072,97.2070018 L368.863214,94.1952191 Z M357.652817,86.7450199 C360.84576,87.8074369 363.683931,89.5781319 366.167331,91.8800354 L363.683931,96.8379814 C363.506545,97.3691899 363.506545,97.9003984 363.683931,98.4316069 L364.748245,100.556441 L358.36236,104.2749 L351.266932,100.025232 L351.266932,92.2341744 L353.040789,92.2341744 C353.572946,92.2341744 354.105103,91.8800354 354.459875,91.5258964 L357.652817,86.7450199 Z M338.029783,123.816906 L336.451276,122.921358 C336.100497,122.563139 335.398938,122.563139 335.048159,122.563139 L329.260301,123.996016 C325.752508,118.801836 324.349391,112.532998 325.226339,106.264161 L330.137249,106.264161 C330.838808,106.264161 331.364976,105.905941 331.715756,105.189503 L332.592704,103.398406 L339.082121,107.338819 L342.063745,118.264507 L338.029783,123.816906 Z M340.749004,129.956175 L340.749004,132.760956 C337.209317,131.358566 334.200582,129.430279 331.545817,126.625498 L335.085504,125.749004 L340.749004,129.956175 Z M325.848606,102.521912 C326.884462,99.5101297 328.265604,96.6755107 330.164675,94.1952191 L331.545817,97.2070018 L328.956175,102.521912 L325.848606,102.521912 Z M340.310757,103.836653 L333.824701,99.9411244 L334.876494,97.8162904 C335.051793,97.2850819 335.051793,96.7538734 334.876494,96.2226649 L332.422311,91.2647189 C335.051793,89.3169544 337.856574,87.5462594 341.011952,86.3067729 L344.167331,91.0876494 C344.517928,91.6188579 345.043825,91.7959274 345.569721,91.7959274 L347.322709,91.7959274 L347.322709,99.5869854 L340.310757,103.836653 Z M349.294821,102.960159 L356.087649,107.095413 L353.40627,116.984064 L345.36213,116.984064 L342.501992,107.095413 L349.294821,102.960159 Z M354.334661,85.5179283 L352.387833,88.498008 L347.255287,88.498008 L345.131474,85.5179283 C348.140208,84.8167331 351.325927,84.8167331 354.334661,85.5179283 Z M337.243028,56.5059761 L346.007968,56.5059761 L346.007968,65.2709163 L344.25498,65.2709163 C340.398406,65.2709163 337.243028,62.1155378 337.243028,58.2589641 L337.243028,56.5059761 Z M299.992032,56.5059761 L317.521912,56.5059761 L317.521912,63.5179283 L299.992032,63.5179283 L299.992032,56.5059761 Z M271.505976,56.5059761 L280.270916,56.5059761 L280.270916,58.2589641 C280.270916,62.1155378 277.115538,65.2709163 273.258964,65.2709163 L271.505976,65.2709163 L271.505976,56.5059761 Z M280.270916,159.494024 L271.505976,159.494024 L271.505976,150.729084 L273.258964,150.729084 C277.115538,150.729084 280.270916,153.884462 280.270916,157.741036 L280.270916,159.494024 Z M317.521912,159.494024 L299.992032,159.494024 L299.992032,152.482072 L317.521912,152.482072 L317.521912,159.494024 Z M346.007968,159.494024 L337.243028,159.494024 L337.243028,157.741036 C337.243028,153.884462 340.398406,150.729084 344.25498,150.729084 L346.007968,150.729084 L346.007968,159.494024 Z M317.521912,109.972112 C316.627531,114.686773 311.79787,117.829881 306.968209,116.782178 C303.390682,116.08371 300.707537,113.464453 299.992032,109.972112 L317.521912,109.972112 Z M299.992032,106.027888 C300.886414,101.313227 305.716074,98.1701192 310.545735,99.2178218 C314.123262,99.9162901 316.806407,102.535547 317.521912,106.027888 L299.992032,106.027888 Z M355.786355,127.85259 C355.252241,128.203187 355.074203,128.729084 355.074203,129.25498 L355.074203,133.988048 C351.513446,134.689243 347.952689,134.689243 344.391932,133.988048 L344.391932,129.25498 C344.391932,128.729084 344.213894,128.203187 343.679781,127.85259 L341.187251,125.924303 L345.282122,120.49004 L354.184014,120.49004 L358.278884,125.924303 L355.786355,127.85259 Z M358.278884,132.760956 L358.278884,129.956175 L363.942384,125.749004 L367.482072,126.625498 C364.827306,129.25498 361.818572,131.358566 358.278884,132.760956 Z M364.227756,121.96624 C363.696272,121.789404 363.164788,121.96624 362.810465,122.319913 L361.038853,123.557769 L356.964143,118.075837 L360.153046,107.28881 L366.708013,103.398406 L367.59382,105.166772 C367.948142,105.697281 368.479626,106.227791 369.188271,106.227791 L374.148787,106.227791 C375.211754,112.240232 373.794464,118.42951 370.251239,123.557769 L364.227756,121.96624 Z" id="sport" transform="translate(323.000000, 108.000000) rotate(-270.000000) translate(-323.000000, -108.000000) "></path>
                </g>
            </g>
        </g>
    </g>
</svg>