<?xml version="1.0" encoding="UTF-8"?>
<svg width="117px" height="108px" viewBox="0 0 117 108" version="1.1" xmlns="http://www.w3.org/2000/svg" xmlns:xlink="http://www.w3.org/1999/xlink">
    <!-- Generator: Sketch 51.3 (57544) - http://www.bohemiancoding.com/sketch -->
    <title>underground_parking</title>
    <desc>Created with Sketch.</desc>
    <defs></defs>
    <g id="Main_page" stroke="none" stroke-width="1" fill="none" fill-rule="evenodd">
        <g id="4" transform="translate(-1034.000000, -284.000000)" fill="#12284C" fill-rule="nonzero">
            <g id="Group-15" transform="translate(132.000000, 202.000000)">
                <g id="Group-18" transform="translate(744.000000, 82.000000)">
                    <path d="M265.249901,53.6264574 C270.627115,53.6264574 275,57.999114 275,63.3765562 L275,87.7516889 C275,98.503831 266.252173,107.251658 255.500031,107.251658 C244.747889,107.251658 236.000062,98.503831 236.000062,87.7516889 L172.624991,87.7516889 C167.247549,87.7516889 162.874892,83.3788038 162.874892,78.0015901 L162.874892,24.3763896 L160.43731,24.3763896 C159.261366,24.3763896 158.25201,23.5361357 158.040176,22.3791584 C157.828341,21.2221811 158.471157,20.0796003 159.568492,19.6607302 L210.756111,0.160761115 C211.317803,-0.0535870384 211.932055,-0.0535870384 212.493748,0.160761115 L263.681366,19.6607302 C264.778929,20.0796003 265.421517,21.2221811 265.209682,22.3791584 C264.997848,23.5361357 263.988492,24.3763896 262.812548,24.3763896 L260.374966,24.3763896 L260.374966,53.6264574 L265.249901,53.6264574 Z M177.499698,36.5638417 C177.499698,35.2167389 178.589948,34.1264883 179.937279,34.1262598 L243.31235,34.1262598 C244.659682,34.1262598 245.749932,35.2165104 245.749932,36.5638417 L245.749932,53.6264574 L255.500031,53.6264574 L255.500031,21.9388077 C255.500031,21.879165 255.502316,21.822036 255.507115,21.7626218 L211.624929,5.04757909 L167.742743,21.7626218 C167.747542,21.8222645 167.749827,21.8793935 167.749827,21.9388077 L167.749827,78.0015901 C167.749827,80.6889401 169.937413,82.8765253 172.624763,82.8765253 L177.499698,82.8765253 L177.499698,36.5638417 Z M182.374633,43.8763586 L240.874768,43.8763586 L240.874768,39.0014235 L182.374633,39.0014235 L182.374633,43.8763586 Z M240.874768,48.7515223 L182.374633,48.7515223 L182.374633,53.6264574 L240.874768,53.6264574 L240.874768,48.7515223 Z M235.999833,82.8765253 L235.999833,68.2514913 L182.374633,68.2514913 L182.374633,82.8765253 L235.999833,82.8765253 Z M235.999833,63.3765562 C235.999833,61.5927591 236.516051,59.9412728 237.35562,58.5016211 L182.374633,58.5016211 L182.374633,63.3765562 L235.999833,63.3765562 Z M270.124836,87.7514604 L270.124608,87.7514604 L270.124608,63.3765562 C270.124608,60.6892062 267.937023,58.5016211 265.249673,58.5016211 L245.749704,58.5016211 C243.062354,58.5016211 240.874768,60.6892062 240.874768,63.3765562 L240.874768,87.7514604 C240.874768,95.8162525 247.43501,102.376494 255.499802,102.376494 C263.564595,102.376494 270.124836,95.8162525 270.124836,87.7514604 Z M260.374966,68.2514913 C261.722297,68.2514913 262.812319,69.3417419 262.812548,70.6890732 C262.812548,72.0364044 261.722297,73.126655 260.374966,73.126655 L257.937384,73.126655 L257.937384,75.5642368 C257.937384,76.9115681 256.847134,78.0018186 255.499802,78.0018186 C254.152471,78.0018186 253.062221,76.9115681 253.062221,75.5642368 L253.062221,73.126655 L250.624639,73.126655 C249.277308,73.126655 248.187057,72.0364044 248.187057,70.6890732 C248.187057,69.3417419 249.277308,68.2514913 250.624639,68.2514913 L253.062221,68.2514913 L253.062221,65.8139095 C253.062221,64.4665783 254.152471,63.3763277 255.499802,63.3763277 C256.847134,63.3763277 257.937384,64.4665783 257.937384,65.8139095 L257.937384,68.2514913 L260.374966,68.2514913 Z M260.374966,87.7514604 C261.722297,87.7514604 262.812548,88.841711 262.812548,90.1890422 C262.812548,91.5363735 261.722297,92.6266241 260.374966,92.6266241 L250.624867,92.6266241 C249.277536,92.6266241 248.187285,91.5363735 248.187285,90.1890422 C248.187285,88.841711 249.277536,87.7514604 250.624867,87.7514604 L260.374966,87.7514604 Z" id="underground_parking"></path>
                </g>
            </g>
        </g>
    </g>
</svg>