<?xml version="1.0" encoding="UTF-8"?>
<svg width="134px" height="76px" viewBox="0 0 134 76" version="1.1" xmlns="http://www.w3.org/2000/svg" xmlns:xlink="http://www.w3.org/1999/xlink">
    <!-- Generator: Sketch 51.3 (57544) - http://www.bohemiancoding.com/sketch -->
    <title>dim_logo_medium</title>
    <desc>Created with Sketch.</desc>
    <defs/>
    <g id="Main_page" stroke="none" stroke-width="1" fill="none" fill-rule="evenodd">
        <g id="v6_home_screen" transform="translate(-714.000000, -5760.000000)" fill="#25366F" fill-rule="nonzero">
            <g id="DIM_featured" transform="translate(200.000000, 5699.000000)">
                <path d="M648,100.772923 L648,136.940237 L629.120692,136.940237 L629.120692,108.750891 L619.531716,98.8356856 L609.960694,108.703161 L609.940989,136.942427 L591.061243,136.942427 L591.061243,108.703161 C591.061243,103.132289 586.719536,98.8400646 581.503796,98.8330583 L581.503796,98.7910206 L571.670038,98.7910206 L571.670038,80.1315345 L552.835395,80.1315345 L552.835395,98.7910206 L542.445951,98.7910206 C537.167592,98.7910206 532.834205,102.958008 532.834205,108.235929 C532.834205,113.514289 537.167592,117.847675 542.445951,117.847675 L552.835395,117.847675 L552.835395,98.7910206 L571.670038,98.7910206 L571.670038,136.956877 L542.445951,136.924035 C526.722974,136.924035 514,123.959345 514,108.235929 C514,92.5685645 526.722974,80.0049835 542.445951,80.0049835 L552.610756,80.0045456 L552.610756,61 L571.902121,61 L571.902121,80.0045456 L581.491973,80.0001667 C589.830326,80.0001667 597.269686,83.6237292 602.481048,89.3544317 L619.531716,72.3063909 L648,100.772923 Z" id="dim_logo_medium"/>
            </g>
        </g>
    </g>
</svg>