<?xml version="1.0" encoding="UTF-8"?>
<svg width="322px" height="275px" viewBox="0 0 322 275" version="1.1" xmlns="http://www.w3.org/2000/svg" xmlns:xlink="http://www.w3.org/1999/xlink">
    <!-- Generator: Sketch 50.2 (55047) - http://www.bohemiancoding.com/sketch -->
    <title>1</title>
    <desc>Created with Sketch.</desc>
    <defs></defs>
    <g id="Page-1" stroke="none" stroke-width="1" fill="none" fill-rule="evenodd">
        <g id="1" transform="translate(0.000000, -11.000000)">
            <path d="M168.44,39.21 C110.759066,39.2100042 63.9973688,85.965738 63.9900085,143.646672 C63.9826482,201.327606 110.732411,248.095272 168.413344,248.109997 C226.094276,248.124721 272.867911,201.38093 272.89,143.7 C272.900611,115.991208 261.900774,89.4136644 242.311449,69.8168375 C222.722124,50.2200106 196.148794,39.209998 168.44,39.21 Z M168.44,244.11 C127.979228,244.134256 91.4908729,219.774601 75.9997396,182.396808 C60.5086063,145.019014 69.0677095,101.989552 97.6835267,73.3851878 C126.299344,44.7808238 169.332229,36.2389468 206.703818,51.745042 C244.075407,67.2511371 268.420454,103.749241 268.38,144.21 C268.341386,199.387717 223.61772,244.106907 168.44,244.14 L168.44,244.11 Z" id="Shape"></path>
            <path d="M248.28,144.21 L254.98,140.34 L259.61,137.67 C256.3542,92.2715046 220.194936,56.1847122 174.79,53.02 L172.31,57.32 L168.44,64.02 L164.57,57.32 L162.09,53.02 C116.584053,56.1919132 80.3836577,92.4307151 77.26,137.94 L81.38,140.32 L88.08,144.19 L81.38,148.06 L77.26,150.44 C80.3818461,195.970836 116.611011,232.221342 162.14,235.37 L164.57,231.17 L168.44,224.47 L172.31,231.17 L174.73,235.37 C220.145788,232.235098 256.331134,196.156342 259.6,150.75 L254.97,148.08 L248.28,144.21 Z" id="Shape"></path>
            <path d="M168.44,26.44 C103.417899,26.4400021 50.7055254,79.147902 50.7000042,144.170003 C50.6944831,209.192103 103.397905,261.908954 168.420005,261.919998 C233.442105,261.931043 286.163432,209.232099 286.18,144.21 C286.187958,112.978213 273.786757,83.0228756 251.705361,60.9358535 C229.623965,38.8488314 199.671788,26.439999 168.44,26.44 Z M168.44,248.15 C110.753858,248.15 63.99,201.386142 63.99,143.7 C63.99,86.0138579 110.753858,39.25 168.44,39.25 C226.126142,39.25 272.89,86.0138579 272.89,143.7 C272.89,201.386142 226.126142,248.15 168.44,248.15 Z" id="Shape" fill="#15284B" fill-rule="nonzero"></path>
            <path d="M168.44,44.21 C127.988324,44.185729 91.5062852,68.5345525 76.0092786,105.900064 C60.512272,143.265575 69.0530311,186.287196 97.6481055,214.899437 C126.24318,243.511679 169.259666,252.078257 206.634472,236.60368 C244.009278,221.129102 268.379993,184.661683 268.38,144.21 C268.38001,89.004948 223.645042,44.243123 168.44,44.21 Z M174.74,235.36 L172.32,231.16 L168.45,224.46 L164.58,231.16 L162.15,235.36 C116.621011,232.211342 80.3918461,195.960836 77.27,150.43 L81.39,148.05 L88.09,144.18 L81.39,140.31 L77.27,137.93 C80.3936577,92.4207151 116.594053,56.1819132 162.1,53.01 L164.58,57.31 L168.45,64.01 L172.32,57.31 L174.8,53.01 C220.204936,56.1747122 256.3642,92.2615046 259.62,137.66 L254.99,140.33 L248.28,144.21 L254.98,148.08 L259.61,150.75 C256.331634,196.148536 220.148752,232.216308 174.74,235.35 L174.74,235.36 Z" id="Shape" stroke="#E32637" fill="#E32436" fill-rule="nonzero"></path>
            <polygon id="Shape" stroke="#E32637" fill="#E32436" points="158.53 148.11 158.53 148.11 127.93 116.12 231.98 119 158.15 192.37"></polygon>
            <text id="W" font-family="AvenirNextCyr-Medium, Avenir Next Cyr" font-size="42" font-weight="400" letter-spacing="1" fill="#000000">
                <tspan x="0" y="41">W</tspan>
            </text>
            <text id="S" font-family="AvenirNextCyr-Medium, Avenir Next Cyr" font-size="42" font-weight="400" letter-spacing="1" fill="#000000">
                <tspan x="7" y="285">S</tspan>
            </text>
            <text id="N" font-family="AvenirNextCyr-Medium, Avenir Next Cyr" font-size="42" font-weight="400" letter-spacing="1" fill="#000000">
                <tspan x="293" y="41">N</tspan>
            </text>
            <text id="E" font-family="AvenirNextCyr-Medium, Avenir Next Cyr" font-size="42" font-weight="400" letter-spacing="1" fill="#000000">
                <tspan x="293" y="285">E</tspan>
            </text>
        </g>
    </g>
</svg>