<svg xmlns="http://www.w3.org/2000/svg" viewBox="0 0 41.333 15"><defs><style>.a{fill:#f6f6f6;}</style></defs><g transform="translate(41.333 15) rotate(180)"><g transform="translate(-200 -85)"><g transform="translate(200 75)"><path class="a" d="M34.365,10.226A.756.756,0,0,0,33.29,11.29l5.451,5.451H.753A.749.749,0,0,0,0,17.495a.757.757,0,0,0,.753.764H38.742L33.29,23.7a.772.772,0,0,0,0,1.075.753.753,0,0,0,1.075,0l6.742-6.742a.74.74,0,0,0,0-1.064Z" transform="translate(41.333 35) rotate(180)"/></g></g></g></svg>