<?xml version="1.0" encoding="UTF-8"?>
<svg width="42px" height="15px" viewBox="0 0 42 15" version="1.1" xmlns="http://www.w3.org/2000/svg" xmlns:xlink="http://www.w3.org/1999/xlink">
    <!-- Generator: Sketch 51.3 (57544) - http://www.bohemiancoding.com/sketch -->
    <title>arrow_red_back_long</title>
    <desc>Created with Sketch.</desc>
    <defs/>
    <g id="Выбор-по-плану" stroke="none" stroke-width="1" fill="none" fill-rule="evenodd">
        <g id="04_Выбор-по-плану-этажа" transform="translate(-200.000000, -85.000000)" fill="#E22737" fill-rule="nonzero">
            <g id="Group-7" transform="translate(200.000000, 75.000000)">
                <path d="M34.3652335,10.2255894 C34.0746093,9.92480354 33.5909132,9.92480354 33.2901274,10.2255894 C32.9995032,10.5162135 32.9995032,10.9999097 33.2901274,11.2898564 L38.7415319,16.741261 L0.752642038,16.741261 C0.333303225,16.7419384 0,17.0752416 0,17.4945804 C0,17.9139192 0.333303225,18.2580616 0.752642038,18.2580616 L38.7415319,18.2580616 L33.2901274,23.6993045 C32.9995032,24.0000903 32.9995032,24.4844639 33.2901274,24.7744106 C33.5909132,25.0751965 34.0752868,25.0751965 34.3652335,24.7744106 L41.1071719,18.0324722 C41.4079577,17.7418481 41.4079577,17.2581519 41.1071719,16.9682052 L34.3652335,10.2255894 Z" id="arrow_red_back_long" transform="translate(20.666381, 17.500000) rotate(-180.000000) translate(-20.666381, -17.500000) "/>
            </g>
        </g>
    </g>
</svg>