<?xml version="1.0" encoding="UTF-8"?>
<svg width="24px" height="27px" viewBox="0 0 24 27" version="1.1" xmlns="http://www.w3.org/2000/svg" xmlns:xlink="http://www.w3.org/1999/xlink">
    <!-- Generator: Sketch 51.3 (57544) - http://www.bohemiancoding.com/sketch -->
    <title>call_blue</title>
    <desc>Created with Sketch.</desc>
    <defs/>
    <g id="Документация" stroke="none" stroke-width="1" fill="none" fill-rule="evenodd">
        <g id="07_документация" transform="translate(-1339.000000, -77.000000)" fill="#12284C">
            <g id="b_call" transform="translate(1300.000000, 40.000000)">
                <path d="M47.1120627,36.8352959 C47.0425086,36.8352959 46.9720686,36.8443965 46.9016285,36.8630311 L45.1255645,37.345797 C45.0152527,37.3761323 44.9200036,37.415135 44.8429183,37.4623715 C40.0481213,40.4075033 43.7211936,49.9982495 44.9612044,52.8675428 C47.5541958,58.8678805 51.8643298,64.8608509 56.1868682,63.6868718 C56.2648396,63.6660704 56.3494563,63.629668 56.4376171,63.5789646 L58.0555233,62.6541689 C58.3970911,62.4587224 58.5384142,62.0431277 58.3838005,61.6869037 L56.5403976,57.4247832 C56.3707212,57.0321568 55.9246009,56.8167756 55.5032896,56.9251162 L52.6227787,57.5569588 L52.5470224,57.5543586 C51.4182094,57.5097223 49.7444828,54.1762977 48.5399136,51.3880431 C47.7464662,49.5518861 47.1842748,48.0281834 46.8697312,46.8585379 C46.7780262,46.517915 46.7067001,46.2050272 46.657968,45.9285419 L46.657968,45.9281086 C46.5068984,45.0717842 46.5609468,44.5274809 46.8232141,44.2635631 L46.9215644,44.1842577 L49.310767,42.6549214 C49.7006239,42.4235058 49.8534656,41.9611079 49.6842322,41.5684815 L47.8403863,37.3059276 C47.7141258,37.0155747 47.4221761,36.8352959 47.1120627,36.8352959 M54.9598042,64.8352959 C49.4267017,64.835725 45.2402526,56.1343742 44.0174843,53.2784054 C38.9938323,41.5494531 42.5734614,37.7280501 44.346106,36.6296006 C44.5151983,36.5244756 44.7103718,36.4412337 44.9259755,36.3820204 L46.6690614,35.9040232 C47.5945053,35.6504358 48.5751542,36.117706 48.9494178,36.9908875 L50.7585758,41.2113366 C51.1450106,42.1132666 50.7968281,43.1752442 49.9483234,43.6824189 L47.8005459,45.0704987 C47.7940256,45.1846345 47.7983725,45.4034662 47.8631405,45.7759093 C47.9057396,46.0179114 47.9687689,46.2955274 48.050055,46.6014628 C48.3452059,47.7076358 48.8785642,49.1652268 49.635785,50.9339022 C51.3975625,55.0466517 52.3425672,56.0794517 52.6233735,56.317163 L55.1449799,55.7589276 C56.0869419,55.5156382 57.0997574,56.0095114 57.4861922,56.9110123 L59.2949155,61.1306032 C59.6700485,62.0042139 59.3266475,63.0245705 58.4963996,63.5034258 L56.9093655,64.4190865 C56.737665,64.5177753 56.5642257,64.5920065 56.3925253,64.6392055 C55.906113,64.7726499 55.4279597,64.8352959 54.9598042,64.8352959" id="call_blue" transform="translate(50.446209, 50.335296) rotate(-15.000000) translate(-50.446209, -50.335296) "/>
            </g>
        </g>
    </g>
</svg>