<?xml version="1.0" encoding="UTF-8"?>
<svg width="23px" height="27px" viewBox="0 0 23 27" version="1.1" xmlns="http://www.w3.org/2000/svg" xmlns:xlink="http://www.w3.org/1999/xlink">
    <!-- Generator: Sketch 51.3 (57544) - http://www.bohemiancoding.com/sketch -->
    <title>call_white</title>
    <desc>Created with Sketch.</desc>
    <defs/>
    <g id="About_flat" stroke="none" stroke-width="1" fill="none" fill-rule="evenodd">
        <g id="flat_mobile" transform="translate(-361.000000, -36.000000)" fill="#FFFFFF">
            <g id="header_mobile">
                <path d="M368.665854,36 C368.5963,36 368.52586,36.0091006 368.45542,36.0277352 L366.679356,36.5105011 C366.569044,36.5408364 366.473795,36.5798391 366.39671,36.6270756 C361.601913,39.5722074 365.274985,49.1629536 366.514996,52.0322469 C369.107987,58.0325846 373.418121,64.025555 377.74066,62.8515759 C377.818631,62.8307745 377.903248,62.7943721 377.991409,62.7436687 L379.609315,61.818873 C379.950883,61.6234265 380.092206,61.2078319 379.937592,60.8516079 L378.094189,56.5894873 C377.924513,56.1968609 377.478392,55.9814797 377.057081,56.0898203 L374.17657,56.7216629 L374.100814,56.7190627 C372.972001,56.6744264 371.298274,53.3410018 370.093705,50.5527472 C369.300258,48.7165902 368.738066,47.1928875 368.423523,46.023242 C368.331818,45.6826191 368.260491,45.3697313 368.211759,45.093246 L368.211759,45.0928127 C368.06069,44.2364883 368.114738,43.692185 368.377006,43.4282672 L368.475356,43.3489618 L370.864558,41.8196255 C371.254415,41.5882099 371.407257,41.125812 371.238024,40.7331856 L369.394178,36.4706317 C369.267917,36.1802788 368.975968,36 368.665854,36 M376.513596,64 C370.980493,64.0004291 366.794044,55.2990783 365.571276,52.4431095 C360.547624,40.7141572 364.127253,36.8927543 365.899897,35.7943047 C366.06899,35.6891797 366.264163,35.6059378 366.479767,35.5467245 L368.222853,35.0687273 C369.148297,34.8151399 370.128946,35.2824101 370.503209,36.1555916 L372.312367,40.3760407 C372.698802,41.2779707 372.35062,42.3399483 371.502115,42.8471231 L369.354337,44.2352028 C369.347817,44.3493386 369.352164,44.5681704 369.416932,44.9406134 C369.459531,45.1826156 369.52256,45.4602315 369.603846,45.7661669 C369.898997,46.8723399 370.432356,48.3299309 371.189576,50.0986063 C372.951354,54.2113558 373.896359,55.2441558 374.177165,55.4818672 L376.698771,54.9236317 C377.640733,54.6803423 378.653549,55.1742155 379.039984,56.0757164 L380.848707,60.2953073 C381.22384,61.168918 380.880439,62.1892746 380.050191,62.6681299 L378.463157,63.5837906 C378.291456,63.6824794 378.118017,63.7567106 377.946317,63.8039096 C377.459904,63.9373541 376.981751,64 376.513596,64" id="call_white" transform="translate(372.000000, 49.500000) rotate(-15.000000) translate(-372.000000, -49.500000) "/>
            </g>
        </g>
    </g>
</svg>