<?xml version="1.0" encoding="UTF-8"?>
<svg width="25px" height="19px" viewBox="0 0 25 19" version="1.1" xmlns="http://www.w3.org/2000/svg" xmlns:xlink="http://www.w3.org/1999/xlink">
    <!-- Generator: Sketch 51.3 (57544) - http://www.bohemiancoding.com/sketch -->
    <title>CCTV_mini</title>
    <desc>Created with Sketch.</desc>
    <defs/>
    <g id="Документация" stroke="none" stroke-width="1" fill="none" fill-rule="evenodd">
        <g id="07_документация" transform="translate(-1237.000000, -81.000000)" fill="#12284C" fill-rule="nonzero">
            <g id="Group-3" transform="translate(1220.000000, 60.000000)">
                <path d="M41.7373224,29.3925911 L27.6124029,21.3140518 C26.5229109,20.6899364 25.0316648,21.0264079 24.3134585,22.0542306 L21.5771065,25.9660112 C21.3085543,26.3503826 21.1666611,26.8009156 21.1666611,27.269759 C21.1666611,28.0797125 21.6020575,28.834149 22.3023929,29.2383445 L25.2813695,30.9586901 L24.7432397,31.6767987 C24.4517873,32.0652229 24.2915837,32.5468103 24.2915837,33.0324992 C24.2915837,33.5319575 24.4744921,34.0017775 24.7691183,34.3901528 L23.9762545,35.5831595 L20.1249714,35.5831595 L20.1249714,34.0155469 C20.1249714,33.7274147 19.8920145,33.4998778 19.6041266,33.4998778 L17.5208448,33.4998778 C17.2329569,33.4998778 17,33.7274147 17,34.0155469 L17,39.2285363 C17,39.5166684 17.2329569,39.7498205 17.5208448,39.7498205 L19.6041754,39.7498205 C19.8920634,39.7498205 20.1250202,39.5166684 20.1250202,39.2285363 L20.1250202,38.7081797 L23.9763033,38.7081797 C25.0235594,38.7081797 25.9955231,38.1879696 26.5763772,37.3159561 L27.4300803,36.0342296 C27.5944831,36.0699226 27.7603019,36.1022953 27.9297828,36.1022953 C28.7588279,36.1022953 29.5390454,35.6604049 29.965311,34.9487414 L30.5375714,33.9941115 L34.970148,36.5539025 C35.0499813,36.60024 35.1400195,36.6236285 35.230546,36.6236285 C35.2808874,36.6236285 35.3312775,36.6164996 35.3805935,36.6017537 C35.5179457,36.560006 35.632349,36.4637666 35.6964597,36.3354963 L36.0820519,35.562603 C36.1453326,35.5673881 36.2062207,35.5810599 36.2706732,35.5810599 C38.2807623,35.5810599 39.9164895,33.9438678 39.9164895,31.9319722 C39.9164895,31.7110269 39.8838726,31.4833435 39.8353867,31.2505819 L41.711932,30.3115769 C41.8838543,30.2255425 41.9942048,30.0519601 41.99982,29.8595302 C42.0048493,29.667491 41.9041666,29.4878051 41.7373224,29.3925911 Z M19.0833305,38.7081797 L18.0416409,38.7081797 L18.0416409,34.5415674 L19.0832817,34.5415674 L19.0832817,38.7081797 L19.0833305,38.7081797 Z M25.7096371,36.7403266 C25.3225801,37.3211807 24.674588,37.6680525 23.9762545,37.6680525 L20.1249714,37.6680525 L20.1249714,36.6264116 L23.9762545,36.6264116 C24.3262025,36.6264116 24.6501741,36.4529757 24.8429458,36.1625487 L25.5641794,35.080332 L26.4586048,35.6168506 L25.7096371,36.7403266 Z M29.0721551,34.4169104 C28.7079983,35.0226665 27.8509749,35.2383384 27.2446816,34.8736445 L25.9237953,34.0812201 C25.5596385,33.8630092 25.3332733,33.463257 25.3332733,33.0385538 C25.3332733,32.7771305 25.4197472,32.5182461 25.5763863,32.3086777 L26.1898573,31.4907653 L29.6351383,33.4785889 L29.0721551,34.4169104 Z M35.011798,35.3782297 L22.8227006,28.3454816 C22.4437978,28.1267824 22.2083019,27.718876 22.2083019,27.2809405 C22.2083019,27.0271343 22.2851079,26.7834841 22.4305655,26.5754782 L23.7382196,24.7078196 L36.6271153,32.1434937 L35.011798,35.3782297 Z M36.6101721,34.5087064 L37.7003965,32.3254256 L38.8573683,31.7470129 C38.8631788,31.8109284 38.8747998,31.8770899 38.8747998,31.9389057 C38.8747998,33.2584737 37.884428,34.3402509 36.6101721,34.5087064 Z M37.3299897,31.3461865 L24.3380188,23.8511379 L25.1669663,22.6672621 C25.4411337,22.2756152 25.8897136,22.041633 26.3678342,22.041633 C26.6226658,22.041633 26.8744213,22.1082828 27.0956596,22.234893 L40.3757626,29.8235442 L37.3299897,31.3461865 Z M34.1874403,33.4998778 C33.8997857,33.4998778 33.6665955,33.2666876 33.6665955,32.9790329 C33.6665955,32.6913782 33.8997857,32.4581881 34.1874403,32.4581881 C34.475095,32.4581881 34.7082852,32.6913782 34.7082852,32.9790329 C34.7082852,33.2666876 34.475095,33.4998778 34.1874403,33.4998778 Z" id="CCTV_mini" transform="translate(29.500000, 30.374910) scale(-1, 1) translate(-29.500000, -30.374910) "/>
            </g>
        </g>
    </g>
</svg>