<?xml version="1.0" encoding="UTF-8"?>
<svg width="20px" height="25px" viewBox="0 0 20 25" version="1.1" xmlns="http://www.w3.org/2000/svg" xmlns:xlink="http://www.w3.org/1999/xlink">
    <!-- Generator: Sketch 51.3 (57544) - http://www.bohemiancoding.com/sketch -->
    <title>pdf_red</title>
    <desc>Created with Sketch.</desc>
    <defs/>
    <g id="About_flat" stroke="none" stroke-width="1" fill="none" fill-rule="evenodd">
        <g id="Страница_квартиры" transform="translate(-535.000000, -641.000000)" fill="#E22737" fill-rule="nonzero">
            <g id="Group-13" transform="translate(535.000000, 641.000000)">
                <g id="Group-17">
                    <path d="M13.790201,0 L20,6.18804264 L20,21.9512493 C20,23.3933885 18.8266824,24.5658399 17.3861737,24.5658399 L3.92354176,24.5658399 C2.48211593,24.5658399 1.30895121,23.3934394 1.30895121,21.9512493 L1.30895121,20.7796132 L1.05358089,20.7796132 C0.471762524,20.7796132 0,20.3083092 0,19.7260832 L0,13.3365263 C0,12.7542494 0.471813476,12.2828945 1.05358089,12.2828945 L1.30895121,12.2828945 L1.30895121,2.61459055 C1.30895121,1.17397995 2.48211593,0 3.92354176,0 L13.790201,0 Z M17.3861737,22.9646293 C17.9442486,22.9646293 18.3979232,22.5101394 18.3979232,21.9511984 L18.3601679,6.82234134 L15.0043819,6.83197122 C14.0030265,6.83197122 13.1911609,6.0193413 13.1911609,5.01875025 L13.1911609,1.59310928 L3.92354176,1.60279012 C3.36546692,1.60279012 2.9109261,2.05727999 2.9109261,2.61459055 L2.9109261,12.2828945 L15.4608588,12.2828945 C16.0427282,12.2828945 16.5144907,12.7542494 16.5144907,13.3365263 L16.5144907,19.7260832 C16.5144907,20.3083092 16.0427282,20.7796132 15.4608588,20.7796132 L2.9109261,20.7796132 L2.9109261,21.9512493 C2.9109261,22.5101394 3.36541597,22.9646293 3.92354176,22.9646293 L17.3861737,22.9646293 Z M2.76398117,14.489616 L2.76398117,18.8620939 L3.75652183,18.8620939 L3.75652183,17.2776974 C3.84884645,17.2904863 3.96690172,17.2970081 4.09861207,17.2970081 C4.69041699,17.2970081 5.19631721,17.1524579 5.53840745,16.8304427 C5.80142054,16.580728 5.94597073,16.2120919 5.94597073,15.7784922 C5.94597073,15.3447907 5.75520727,14.9762565 5.4725268,14.7529858 C5.17659887,14.51606 4.73617169,14.3981066 4.11822851,14.3981066 C3.50675621,14.3981066 3.07274895,14.4374414 2.76398117,14.489616 Z M6.58597603,18.8420189 C6.8356907,18.8748828 7.20381731,18.9077977 7.72342355,18.9077977 C8.5910814,18.9077977 9.30129825,18.7238617 9.76786369,18.3360168 C10.195502,17.9747177 10.5042698,17.3892818 10.5042698,16.5412913 C10.5042698,15.7584172 10.2152203,15.2131313 9.7550748,14.871041 C9.32748747,14.5490768 8.78179391,14.3981066 7.94027432,14.3981066 C7.43391554,14.3981066 6.95410264,14.4310215 6.58597603,14.489616 L6.58597603,18.8420189 Z M13.7613622,16.2651327 L12.1701382,16.2651327 L12.1701382,15.2524661 L13.8729466,15.2524661 L13.8729466,14.4310215 L11.1643501,14.4310215 L11.1643501,18.8620939 L12.1701382,18.8620939 L12.1701382,17.0801573 L13.7613622,17.0801573 L13.7613622,16.2651327 Z M4.95343007,15.8049362 C4.95343007,16.2587128 4.62458729,16.5276872 4.09219215,16.5276872 C3.94723434,16.5276872 3.84206987,16.5212673 3.75652183,16.5020075 L3.75652183,15.1930563 C3.82877145,15.1737965 3.96690172,15.1536706 4.1708617,15.1536706 C4.67034199,15.1536706 4.95343007,15.3969653 4.95343007,15.8049362 Z M8.0454388,15.1673766 C8.90662577,15.1673766 9.4458994,15.6539661 9.43947948,16.5743081 C9.43947948,17.6326784 8.84767456,18.1321587 7.94027432,18.1257388 C7.81539151,18.1257388 7.67726124,18.1257388 7.5917132,18.1056638 L7.5917132,15.2067114 C7.67721029,15.1866873 7.82176049,15.1673766 8.0454388,15.1673766 Z" id="pdf_red"/>
                </g>
            </g>
        </g>
    </g>
</svg>