<?xml version="1.0" encoding="UTF-8"?>
<svg width="20px" height="20px" viewBox="0 0 20 20" version="1.1" xmlns="http://www.w3.org/2000/svg" xmlns:xlink="http://www.w3.org/1999/xlink">
    <!-- Generator: Sketch 51.3 (57544) - http://www.bohemiancoding.com/sketch -->
    <title>print_red</title>
    <desc>Created with Sketch.</desc>
    <defs/>
    <g id="About_flat" stroke="none" stroke-width="1" fill="none" fill-rule="evenodd">
        <g id="Страница_квартиры" transform="translate(-535.000000, -684.000000)" fill="#E22737" fill-rule="nonzero">
            <g id="Group-13" transform="translate(535.000000, 641.000000)">
                <g id="Group-18" transform="translate(0.000000, 43.000000)">
                    <path d="M18.7501546,5.0002061 C19.4410094,5.0002061 20.0000412,5.56043331 20,6.25017519 L20,13.7504843 C20,14.4412979 19.4409682,15.0003298 18.7501134,15.0003298 L16.2499691,15.0003298 L16.2499691,18.7505668 C16.2499691,19.4415865 15.6909373,20.0006183 15.0001237,20.0006183 L5.00024732,20.0006183 C4.30988714,20.0006183 3.75015458,19.4415865 3.75015458,18.7505668 L3.75015458,15.0003298 L1.25009275,15.0003298 C0.559732562,15.0003298 0,14.4412979 0,13.7504843 L0,6.25017519 C0,5.56043331 0.559732562,5.0002061 1.25009275,5.0002061 L18.7501546,5.0002061 Z M15.0001237,18.750608 L15.0001237,11.2502988 L5.00024732,11.2502988 L5.00024732,18.750608 L15.0001237,18.750608 Z M6.25021641,15.000371 L12.4999794,15.000371 L12.4999794,16.2506286 L6.25021641,16.2506286 L6.25021641,15.000371 Z M5.00024732,1.25009275 L5.00024732,3.75015458 L3.75015458,3.75015458 L3.75015458,1.25009275 C3.75015458,0.560392089 4.30988714,-5.68434189e-14 5.00024732,-5.68434189e-14 L15.0001237,-5.68434189e-14 C15.6909373,-5.68434189e-14 16.2500103,0.560392089 16.2499691,1.25009275 L16.2499691,3.75015458 L15.0001237,3.75015458 L15.0001237,1.25009275 L5.00024732,1.25009275 Z M6.25021641,12.5003916 L13.7498248,12.5003916 L13.7498248,13.7504843 L6.25021641,13.7504843 L6.25021641,12.5003916 Z M17.4998969,8.75036068 C18.1909167,8.75036068 18.7501546,8.1912052 18.7501546,7.50026793 C18.7501546,6.81056728 18.1909579,6.25017519 17.4998969,6.25017519 C16.8090421,6.25017519 16.2500103,6.8106085 16.2500103,7.50026793 C16.2500103,8.19124642 16.8090421,8.75036068 17.4998969,8.75036068 Z" id="print_red"/>
                </g>
            </g>
        </g>
    </g>
</svg>