<?xml version="1.0" encoding="UTF-8"?>
<svg width="42px" height="15px" viewBox="0 0 42 15" version="1.1" xmlns="http://www.w3.org/2000/svg" xmlns:xlink="http://www.w3.org/1999/xlink">
    <!-- Generator: Sketch 51.3 (57544) - http://www.bohemiancoding.com/sketch -->
    <title>red_arrow_right</title>
    <desc>Created with Sketch.</desc>
    <defs/>
    <g id="Main_page" stroke="none" stroke-width="1" fill="none" fill-rule="evenodd">
        <g id="v6_home_screen" transform="translate(-1214.000000, -3088.000000)" fill="#E22737" fill-rule="nonzero">
            <g id="Group-15" transform="translate(200.000000, 2731.000000)">
                <g id="Group-18" transform="translate(744.000000, 82.000000)">
                    <g id="Group-10" transform="translate(120.000000, 264.000000)">
                        <path d="M184.365233,11.2255894 C184.074609,10.9248035 183.590913,10.9248035 183.290127,11.2255894 C182.999503,11.5162135 182.999503,11.9999097 183.290127,12.2898564 L188.741532,17.741261 L150.752642,17.741261 C150.333303,17.7419384 150,18.0752416 150,18.4945804 C150,18.9139192 150.333303,19.2580616 150.752642,19.2580616 L188.741532,19.2580616 L183.290127,24.6993045 C182.999503,25.0000903 182.999503,25.4844639 183.290127,25.7744106 C183.590913,26.0751965 184.075287,26.0751965 184.365233,25.7744106 L191.107172,19.0324722 C191.407958,18.7418481 191.407958,18.2581519 191.107172,17.9682052 L184.365233,11.2255894 Z" id="red_arrow_right"/>
                    </g>
                </g>
            </g>
        </g>
    </g>
</svg>