<?xml version="1.0" encoding="UTF-8"?>
<svg width="42px" height="15px" viewBox="0 0 42 15" version="1.1" xmlns="http://www.w3.org/2000/svg" xmlns:xlink="http://www.w3.org/1999/xlink">
    <!-- Generator: Sketch 51.3 (57544) - http://www.bohemiancoding.com/sketch -->
    <title>red_arrow_left</title>
    <desc>Created with Sketch.</desc>
    <defs/>
    <g id="Main_page" stroke="none" stroke-width="1" fill="none" fill-rule="evenodd">
        <g id="v6_home_screen" transform="translate(-1064.000000, -3088.000000)" fill="#E22737" fill-rule="nonzero">
            <g id="Group-15" transform="translate(200.000000, 2731.000000)">
                <g id="Group-18" transform="translate(744.000000, 82.000000)">
                    <g id="Group-10" transform="translate(120.000000, 264.000000)">
                        <path d="M34.3652335,11.2255894 C34.0746093,10.9248035 33.5909132,10.9248035 33.2901274,11.2255894 C32.9995032,11.5162135 32.9995032,11.9999097 33.2901274,12.2898564 L38.7415319,17.741261 L0.752642038,17.741261 C0.333303225,17.7419384 0,18.0752416 0,18.4945804 C0,18.9139192 0.333303225,19.2580616 0.752642038,19.2580616 L38.7415319,19.2580616 L33.2901274,24.6993045 C32.9995032,25.0000903 32.9995032,25.4844639 33.2901274,25.7744106 C33.5909132,26.0751965 34.0752868,26.0751965 34.3652335,25.7744106 L41.1071719,19.0324722 C41.4079577,18.7418481 41.4079577,18.2581519 41.1071719,17.9682052 L34.3652335,11.2255894 Z" id="red_arrow_left" transform="translate(20.666381, 18.500000) rotate(-180.000000) translate(-20.666381, -18.500000) "/>
                    </g>
                </g>
            </g>
        </g>
    </g>
</svg>