<?xml version="1.0" encoding="UTF-8"?>
<svg width="50px" height="50px" viewBox="0 0 50 50" version="1.1" xmlns="http://www.w3.org/2000/svg" xmlns:xlink="http://www.w3.org/1999/xlink">
    <!-- Generator: Sketch 51.3 (57544) - http://www.bohemiancoding.com/sketch -->
    <title>rose_of_winf</title>
    <desc>Created with Sketch.</desc>
    <defs/>
    <g id="Выбор-по-плану" stroke="none" stroke-width="1" fill="none" fill-rule="evenodd">
        <g id="04_Выбор-по-плану-этажа" transform="translate(-1242.000000, -741.000000)" fill="#16284A" fill-rule="nonzero">
            <g id="Group-14" transform="translate(1215.000000, 700.000000)">
                <path d="M76.9155405,65.7466216 L76.9155405,65.6621622 C76.9155405,65.5777027 76.8310811,65.5777027 76.8310811,65.4932432 C76.8310811,65.4932432 76.8310811,65.4087838 76.7466216,65.4087838 C76.7466216,65.4087838 76.6621622,65.3243243 76.5777027,65.3243243 L76.4932432,65.3243243 L62.9797297,61.1013514 L68.4695946,50.5439189 C68.6385135,50.2905405 68.5540541,49.9527027 68.3006757,49.6993243 C68.0472973,49.4459459 67.7094595,49.4459459 67.4560811,49.5304054 L56.8986486,55.0202703 L52.6756757,41.5067568 L52.6756757,41.4222973 C52.6756757,41.3378378 52.5912162,41.3378378 52.5912162,41.2533784 C52.5912162,41.2533784 52.5912162,41.1689189 52.5067568,41.1689189 C52.4222973,41.1689189 52.4222973,41.0844595 52.3378378,41.0844595 L52.2533784,41.0844595 C52.1689189,41.0844595 52.0844595,41 52,41 C51.9155405,41 51.8310811,41 51.7466216,41.0844595 L51.6621622,41.0844595 C51.5777027,41.0844595 51.5777027,41.1689189 51.4932432,41.1689189 C51.4932432,41.1689189 51.4087838,41.1689189 51.4087838,41.2533784 C51.4087838,41.2533784 51.3243243,41.3378378 51.3243243,41.4222973 L51.3243243,41.5067568 L47.1013514,55.0202703 L36.5439189,49.5304054 C36.2905405,49.3614865 35.9527027,49.4459459 35.6993243,49.6993243 C35.4459459,49.9527027 35.4459459,50.2905405 35.5304054,50.5439189 L41.0202703,61.0168919 L27.5067568,65.2398649 L27.4222973,65.2398649 C27.3378378,65.2398649 27.3378378,65.3243243 27.2533784,65.3243243 C27.2533784,65.3243243 27.1689189,65.3243243 27.1689189,65.4087838 C27.1689189,65.4932432 27.0844595,65.4932432 27.0844595,65.5777027 L27.0844595,65.6621622 C27.0844595,65.7466216 27,65.8310811 27,65.9155405 C27,66 27,66.0844595 27.0844595,66.1689189 L27.0844595,66.2533784 C27.0844595,66.3378378 27.1689189,66.3378378 27.1689189,66.4222973 C27.1689189,66.4222973 27.1689189,66.5067568 27.2533784,66.5067568 C27.2533784,66.5067568 27.3378378,66.5912162 27.4222973,66.5912162 L27.5067568,66.5912162 L41.0202703,70.8141892 L35.5304054,81.3716216 C35.3614865,81.625 35.4459459,81.9628378 35.6993243,82.2162162 C35.8682432,82.3851351 36.0371622,82.3851351 36.2060811,82.3851351 C36.2905405,82.3851351 36.4594595,82.3851351 36.5439189,82.3006757 L47.1013514,76.9797297 L51.3243243,90.4932432 L51.3243243,90.5777027 C51.3243243,90.6621622 51.4087838,90.6621622 51.4087838,90.7466216 C51.4087838,90.7466216 51.4087838,90.8310811 51.4932432,90.8310811 C51.5777027,90.8310811 51.5777027,90.9155405 51.6621622,90.9155405 L51.7466216,90.9155405 C51.8310811,90.9155405 51.9155405,91 52,91 C52.0844595,91 52.1689189,91 52.2533784,90.9155405 L52.3378378,90.9155405 C52.4222973,90.9155405 52.4222973,90.8310811 52.5067568,90.8310811 C52.5067568,90.8310811 52.5912162,90.8310811 52.5912162,90.7466216 C52.5912162,90.7466216 52.6756757,90.6621622 52.6756757,90.5777027 L52.6756757,90.4932432 L56.8986486,76.9797297 L67.4560811,82.4695946 C67.5405405,82.5540541 67.7094595,82.5540541 67.7939189,82.5540541 C67.9628378,82.5540541 68.1317568,82.4695946 68.3006757,82.3851351 C68.5540541,82.1317568 68.5540541,81.7939189 68.4695946,81.5405405 L62.9797297,70.8986486 L76.4932432,66.6756757 L76.5777027,66.6756757 C76.6621622,66.6756757 76.6621622,66.5912162 76.7466216,66.5912162 C76.7466216,66.5912162 76.8310811,66.5912162 76.8310811,66.5067568 C76.8310811,66.4222973 76.9155405,66.3378378 76.9155405,66.3378378 C77,66.1689189 77,66.0844595 77,66 C77,65.9155405 77,65.8310811 76.9155405,65.7466216 Z M37.8952703,51.8952703 L46.6790541,56.4560811 L45.6655405,59.6655405 L42.4560811,60.6790541 L37.8952703,51.8952703 Z M46.0033784,61.0168919 L50.3108108,65.3243243 L32.4054054,65.3243243 L46.0033784,61.0168919 Z M32.4054054,66.6756757 L50.3108108,66.6756757 L46.0033784,70.9831081 L32.4054054,66.6756757 Z M37.8952703,80.1047297 L42.4560811,71.3209459 L45.6655405,72.3344595 L46.6790541,75.5439189 L37.8952703,80.1047297 Z M51.3243243,85.5945946 L47.0168919,71.9966216 L51.3243243,67.6891892 L51.3243243,85.5945946 Z M51.3243243,64.2263514 L47.0168919,59.9189189 L51.3243243,46.3209459 L51.3243243,64.2263514 Z M66.1047297,51.8952703 L61.5439189,60.6790541 L58.3344595,59.6655405 L57.3209459,56.4560811 L66.1047297,51.8952703 Z M52.6756757,46.4054054 L56.9831081,60.0033784 L52.6756757,64.3108108 L52.6756757,46.4054054 Z M52.6756757,85.6790541 L52.6756757,67.7736486 L56.9831081,72.0810811 L52.6756757,85.6790541 Z M66.1047297,80.1047297 L57.3209459,75.5439189 L58.3344595,72.3344595 L61.5439189,71.3209459 L66.1047297,80.1047297 Z M57.9966216,70.9831081 L53.6891892,66.6756757 L71.5945946,66.6756757 L57.9966216,70.9831081 Z M53.7736486,65.3243243 L58.0810811,61.0168919 L71.6790541,65.3243243 L53.7736486,65.3243243 Z" id="rose_of_winf"/>
            </g>
        </g>
    </g>
</svg>