<?xml version="1.0" encoding="UTF-8"?>
<svg width="33px" height="24px" viewBox="0 0 33 24" version="1.1" xmlns="http://www.w3.org/2000/svg" xmlns:xlink="http://www.w3.org/1999/xlink">
    <!-- Generator: Sketch 51.3 (57544) - http://www.bohemiancoding.com/sketch -->
    <title>vr</title>
    <desc>Created with Sketch.</desc>
    <defs/>
    <g id="Апартаменты" stroke="none" stroke-width="1" fill="none" fill-rule="evenodd">
        <g id="03_Апартаменты" transform="translate(-704.000000, -813.000000)" fill="#FFFFFF" fill-rule="nonzero">
            <g id="vr" transform="translate(670.000000, 775.000000)">
                <path d="M66.3948118,43.4046188 C66.3948118,41.823347 64.6776337,40.4546662 61.4267637,39.4456185 C58.4180955,38.5137615 54.4332806,38 50.1991775,38 C45.9650743,38 41.9767162,38.5137615 38.9715913,39.4456185 C35.7207213,40.4546662 34,41.823347 34,43.4046188 L34,57.4356216 L34.0037963,57.4356216 C34,57.4538437 34,57.4723189 34,57.490541 C34,59.2811136 36.2565011,60.8221449 40.354951,61.8311927 L41.0375198,62 L41.0375198,54.059981 C43.5106612,53.4913002 46.6403037,53.128124 50.1994306,53.128124 C53.7621006,53.128124 56.8919962,53.4913002 59.3613413,54.059981 L59.3613413,62 L60.0439102,61.8311927 C64.1383107,60.8221449 66.3948118,59.2811136 66.3948118,57.490541 C66.3948118,57.4723189 66.3948118,57.4538437 66.3910155,57.4356216 L66.3948118,57.4356216 L66.3948118,43.4046188 Z M39.9366023,60.5837393 C36.9352736,59.7546346 35.1006643,58.5914584 35.1006643,57.490541 C35.1006643,57.4573869 35.1006643,57.4209427 35.1044606,57.3877887 C35.2180955,56.3200253 37.0306865,55.2046821 39.9366023,54.3973426 L39.9366023,60.5837393 Z M60.4617526,60.5837393 L60.4617526,54.3973426 C63.3676685,55.2046821 65.1802594,56.3200253 65.2903512,57.3877887 C65.2941474,57.4209427 65.2941474,57.4573869 65.2941474,57.490541 C65.2941474,58.5912053 63.4630813,59.7543815 60.4617526,60.5837393 Z M65.2941474,44.5531161 C64.1676685,45.352863 62.2267637,46.0832648 59.7903195,46.6225878 L59.3610883,46.7180006 L59.3610883,52.2509332 L60.4617526,52.2509332 L60.4617526,47.5984815 C62.4725087,47.1252135 64.112496,46.5307181 65.2938943,45.8519456 L65.2938943,55.3770326 C64.4609934,54.6542233 63.1621639,54.0121481 61.4265106,53.4763682 C58.4180955,52.540968 54.4335337,52.0272066 50.1991775,52.0272066 C45.9648213,52.0272066 41.9767162,52.540968 38.9715913,53.4766213 C37.2361911,54.0124011 35.9335653,54.6544764 35.1004113,55.3772857 L35.1006643,45.8666245 C36.2894021,46.5380576 37.936982,47.132553 39.9366023,47.6020247 L39.9366023,52.2509332 L41.0372667,52.2509332 L41.0372667,46.7180006 L40.6042392,46.6225878 C38.1974059,46.0941474 36.2415691,45.3639987 35.1004113,44.5751345 L35.1004113,43.4046188 C35.1004113,41.3683012 41.3012338,39.1006643 50.1989244,39.1006643 C59.096615,39.1006643 65.2936413,41.3683012 65.2936413,43.4046188 L65.2936413,44.5531161 L65.2941474,44.5531161 Z"/>
            </g>
        </g>
    </g>
</svg>