<?xml version="1.0" encoding="utf-8"?>
<!-- Generator: Adobe Illustrator 23.0.0, SVG Export Plug-In . SVG Version: 6.00 Build 0)  -->
<svg version="1.2" baseProfile="tiny" id="Слой_1"
	 xmlns="http://www.w3.org/2000/svg" xmlns:xlink="http://www.w3.org/1999/xlink" x="0px" y="0px" width="40px" height="40px"
	 viewBox="0 0 40 40" xml:space="preserve">
<circle fill="#E22737" cx="20" cy="20" r="19.328"/>
<g id="О-комплексе">
	<g transform="translate(-972.000000, -2308.000000)">
		<g id="Infrastructure" transform="translate(-164.000000, 1921.000000)">
			<g id="Group-2" transform="translate(1124.000000, 378.000000)">
				<g id="Group-7">
					<path id="apple_white" fill="#FFFFFF" d="M32.3,24.8c4.2-1.9,7.5,0.6,7.5,4.8c0,4.4-3.1,11.1-7.9,9c-4.5,2-7.9-4.6-7.9-9
						c0-4.2,3.6-6.6,7.4-4.9c1.2-3.2,2.3-4.7,2.3-4.7c0.1-0.2,0.4-0.2,0.6-0.2l1.4,0.7c0.2,0.1,0.2,0.3,0,0.4c0,0-1.2,0.9-1.8,1.6
						l0,0C33.3,23.4,32.7,24.2,32.3,24.8z M31.5,23.4c0,0-1.7,0.1-2.9-1c-1.2-1.2-1-2.9-1-2.9c0-0.2,0.2-0.4,0.4-0.4
						c0,0,1.7-0.1,2.9,1c1.2,1.2,1,2.9,1,2.9C31.9,23.2,31.7,23.4,31.5,23.4z"/>
				</g>
			</g>
		</g>
	</g>
</g>
</svg>
