<?xml version="1.0" encoding="utf-8"?>
<!-- Generator: Adobe Illustrator 23.0.0, SVG Export Plug-In . SVG Version: 6.00 Build 0)  -->
<svg version="1.1" id="Слой_1" xmlns="http://www.w3.org/2000/svg" xmlns:xlink="http://www.w3.org/1999/xlink" x="0px" y="0px"
	 viewBox="0 0 40 40" style="enable-background:new 0 0 40 40;" xml:space="preserve">
<style type="text/css">
	.st0{fill:#E22737;}
</style>
<title>parks_red</title>
<desc>Created with Sketch.</desc>
<g id="О-комплексе">
	<g transform="translate(-970.000000, -2430.000000)">
		<g id="Infrastructure" transform="translate(-164.000000, 1921.000000)">
			<g id="Group-2" transform="translate(1124.000000, 498.000000)">
				<path id="parks_red" class="st0" d="M39.9,34.9L37.2,31h1c0.1,0,0.3-0.1,0.3-0.2c0.1-0.1,0.1-0.3,0-0.4l-1.8-2.6H37
					c0.1,0,0.3-0.1,0.3-0.2c0.1-0.1,0.1-0.3,0-0.4l-1.6-2.3c-0.1-0.1-0.2-0.1-0.3-0.1s-0.2,0.1-0.3,0.1l-1.6,2.3
					c-0.1,0.1-0.1,0.3,0,0.4s0.2,0.2,0.3,0.2h0.3l-1.8,2.6c-0.1,0.1-0.1,0.3,0,0.4s0.2,0.2,0.3,0.2h1l-2.7,3.9
					c-0.1,0.1-0.1,0.3,0,0.4c0.1,0.1,0.2,0.2,0.3,0.2h3v3.3h-7.8v-2.5l1.4-1.1c0.1-0.1,0.1-0.2,0-0.3l-0.5-0.6
					c-0.1-0.1-0.2-0.1-0.3,0l-0.5,0.4v-2.2c0.3,0.1,0.6,0.2,0.9,0.2c1.2,0,2.2-1,2.2-2.2c0-0.2,0-0.3-0.1-0.5c1-0.2,1.7-1.1,1.7-2.1
					s-0.7-1.9-1.7-2.1c0.1-0.2,0.1-0.4,0.1-0.6c0-1.2-1-2.2-2.2-2.2c-0.2,0-0.4,0-0.6,0.1V23c0-0.7-0.6-1.3-1.3-1.3
					c-0.7,0-1.3,0.6-1.3,1.3v0.1C24,23,23.8,23,23.6,23c-1.2,0-2.2,1-2.2,2.2c0,0.2,0,0.4,0.1,0.6c-1,0.2-1.7,1.1-1.7,2.1
					s0.7,1.9,1.7,2.1c0,0.2-0.1,0.3-0.1,0.5c0,1.2,1,2.2,2.2,2.2c0.3,0,0.6-0.1,0.9-0.2v6.4h-3.6c-0.4,0-0.7,0.3-0.7,0.7
					s0.3,0.7,0.7,0.7H39c0.4,0,0.7-0.3,0.7-0.7s-0.3-0.7-0.7-0.7h-2.6v-3.3h3l0,0c0.1,0,0.3-0.1,0.3-0.2C40,35.1,40,35,39.9,34.9z"
					/>
			</g>
		</g>
	</g>
</g>
</svg>
