<?xml version="1.0" encoding="utf-8"?>
<!-- Generator: Adobe Illustrator 23.0.0, SVG Export Plug-In . SVG Version: 6.00 Build 0)  -->
<svg version="1.1" id="Слой_1" xmlns="http://www.w3.org/2000/svg" xmlns:xlink="http://www.w3.org/1999/xlink" x="0px" y="0px"
	 viewBox="0 0 100 111" style="enable-background:new 0 0 100 111;" xml:space="preserve">
<style type="text/css">
	.st0{fill-rule:evenodd;clip-rule:evenodd;fill:#E22737;}
	.st1{fill-rule:evenodd;clip-rule:evenodd;fill:#FFFFFF;}
</style>
<title>red_pin_big</title>
<desc>Created with Sketch.</desc>
<g id="Новости">
	<g transform="translate(-380.000000, -4182.000000)">
		<g id="contact" transform="translate(-164.000000, 3814.000000)">
			<g id="map" transform="translate(0.000000, 83.000000)">
				<g id="Pin" transform="translate(544.000000, 285.000000)">
					<path id="red_pin_big" class="st0" d="M98.3,62.8L85.3,111L37.1,98.1C10.4,91-5.4,63.6,1.7,37S36.3-5.4,62.9,1.7
						S105.4,36.2,98.3,62.8z"/>
				</g>
			</g>
		</g>
	</g>
</g>
<g id="Новости_1_">
	<g transform="translate(-415.000000, -4214.000000)">
		<g id="contact_1_" transform="translate(-164.000000, 3814.000000)">
			<g id="map_1_" transform="translate(0.000000, 83.000000)">
				<g id="Pin_1_" transform="translate(544.000000, 285.000000)">
					<g id="logo" transform="translate(35.000000, 32.000000)">
						<polygon id="logo_mini" class="st1" points="50.8,32 48.3,37.3 55.4,53.7 40.7,53.7 35,66 40.2,66 43.7,58.2 57.4,58.2 
							60.7,66 66,66 						"/>
					</g>
				</g>
			</g>
		</g>
	</g>
</g>
</svg>
