<?xml version="1.0" encoding="utf-8"?>
<!-- Generator: Adobe Illustrator 23.0.0, SVG Export Plug-In . SVG Version: 6.00 Build 0)  -->
<svg version="1.1" id="Слой_1" xmlns="http://www.w3.org/2000/svg" xmlns:xlink="http://www.w3.org/1999/xlink" x="0px" y="0px"
	 width="50px" height="55.5px" viewBox="0 0 50 55.5" style="enable-background:new 0 0 50 55.5;" xml:space="preserve">
<style type="text/css">
	.st0{fill-rule:evenodd;clip-rule:evenodd;fill:#E22737;}
	.st1{fill-rule:evenodd;clip-rule:evenodd;fill:#FFFFFF;}
</style>
<g id="Новости">
	<g transform="translate(-380.000000, -4182.000000)">
		<g id="contact" transform="translate(-164.000000, 3814.000000)">
			<g id="map" transform="translate(0.000000, 83.000000)">
				<g id="Pin" transform="translate(544.000000, 285.000000)">
					<path id="red_pin_big" class="st0" d="M18.7,1.4c13-3.5,26.6,4.3,30.1,17.3s-4.3,26.5-17.3,29.9L7.7,55L1.2,31.3
						C-2.1,18.4,5.5,4.9,18.7,1.4z"/>
				</g>
			</g>
		</g>
	</g>
</g>
<g id="Новости_1_">
	<g transform="translate(-415.000000, -4214.000000)">
		<g id="contact_1_" transform="translate(-164.000000, 3814.000000)">
			<g id="map_1_" transform="translate(0.000000, 83.000000)">
				<g id="Pin_1_" transform="translate(544.000000, 285.000000)">
					<g id="logo" transform="translate(35.000000, 32.000000)">
						<polygon id="logo_mini" class="st1" points="25.3,16.2 24.2,18.8 27.7,26.8 20.5,26.8 17.7,32.8 20.2,32.8 21.8,29 28.6,29 
							30.3,32.8 32.8,32.8 						"/>
					</g>
				</g>
			</g>
		</g>
	</g>
</g>
</svg>
