<?xml version="1.0" encoding="utf-8"?>
<!-- Generator: Adobe Illustrator 23.0.0, SVG Export Plug-In . SVG Version: 6.00 Build 0)  -->
<svg version="1.2" baseProfile="tiny" id="Слой_1"
	 xmlns="http://www.w3.org/2000/svg" xmlns:xlink="http://www.w3.org/1999/xlink" x="0px" y="0px" width="40px" height="40px"
	 viewBox="0 0 40 40" xml:space="preserve">
<circle fill="#E22737" cx="20" cy="20" r="19.328"/>
<g id="О-комплексе">
	<g transform="translate(-970.000000, -2251.000000)">
		<g id="Infrastructure" transform="translate(-164.000000, 1921.000000)">
			<g id="Group-2" transform="translate(1124.000000, 318.000000)">
				<path id="resorant_red" fill="#FFFFFF" d="M21.2,35.6c0,0.3,0.3,0.6,0.6,0.6h16.4c0.3,0,0.6-0.3,0.6-0.6c0-4.3-3.1-7.9-7.2-8.6
					c0.1-0.2,0.2-0.5,0.2-0.7c0-1-0.8-1.8-1.8-1.8s-1.8,0.8-1.8,1.8c0,0.3,0.1,0.5,0.2,0.7C24.3,27.7,21.2,31.3,21.2,35.6z
					 M29.4,26.3c0-0.3,0.3-0.6,0.6-0.6s0.6,0.3,0.6,0.6s-0.3,0.6-0.6,0.6S29.4,26.6,29.4,26.3z M39.4,37.4c0.3,0,0.6,0.3,0.6,0.6
					s-0.3,0.6-0.6,0.6H20.6c-0.3,0-0.6-0.3-0.6-0.6s0.3-0.6,0.6-0.6H39.4z"/>
			</g>
		</g>
	</g>
</g>
</svg>
