<?xml version="1.0" encoding="utf-8"?>
<!-- Generator: Adobe Illustrator 23.0.0, SVG Export Plug-In . SVG Version: 6.00 Build 0)  -->
<svg version="1.2" baseProfile="tiny" id="Слой_1"
	 xmlns="http://www.w3.org/2000/svg" xmlns:xlink="http://www.w3.org/1999/xlink" x="0px" y="0px" width="40px" height="40px"
	 viewBox="0 0 40 40" xml:space="preserve">
<circle fill="#E22737" cx="20" cy="20" r="19.328"/>
<g id="О-комплексе">
	<g transform="translate(-970.000000, -2374.000000)">
		<g id="Infrastructure" transform="translate(-164.000000, 1921.000000)">
			<g id="Group-2" transform="translate(1124.000000, 438.000000)">
				<path id="sport_red" fill="#FFFFFF" d="M26.4,33.2h7.2v3.5h-7.2C26.4,36.7,26.4,33.2,26.4,33.2z M39,32.2c0.6,0,1,0.5,1,1v3.1
					c0,0.6-0.5,1-1,1h-0.5v-5.2H39V32.2z M36.5,30c0.6,0,1,0.5,1,1v7.8c0,0.6-0.5,1-1,1h-2V30H36.5z M22.5,31c0-0.6,0.5-1,1-1h2v9.9
					h-2c-0.6,0-1-0.5-1-1V31z M20,33.3c0-0.6,0.5-1,1-1h0.5v5.2H21c-0.6,0-1-0.5-1-1V33.3z"/>
			</g>
		</g>
	</g>
</g>
</svg>
