<?xml version="1.0" encoding="UTF-8"?>
<svg width="386px" height="128px" viewBox="0 0 386 128" version="1.1" xmlns="http://www.w3.org/2000/svg" xmlns:xlink="http://www.w3.org/1999/xlink">
    <!-- Generator: Sketch 51.3 (57544) - http://www.bohemiancoding.com/sketch -->
    <title>Logo_DIM</title>
    <desc>Created with Sketch.</desc>
    <defs/>
    <g id="О-застройщике" stroke="none" stroke-width="1" fill="none" fill-rule="evenodd">
        <g id="12_О-застройщке" transform="translate(-974.000000, -485.000000)" fill="#FFFFFF" fill-rule="nonzero">
            <g id="Logo_DIM" transform="translate(974.000000, 485.000000)">
                <path d="M247.01132,79.0716275 C247.909382,79.0716275 248.648962,78.7613846 249.232119,78.1423553 C249.815276,77.4992931 250.106855,76.6901855 250.106855,75.7143041 C250.106855,74.7376944 249.815276,73.9285867 249.232119,73.3088292 C248.648962,72.6664953 247.909382,72.3577089 247.01132,72.3577089 C246.11463,72.3577089 245.374364,72.6664953 244.767881,73.3088292 C244.186096,73.9285867 243.893145,74.7376944 243.893145,75.7143041 C243.893145,76.6901855 244.186096,77.4992931 244.767881,78.1423553 C245.374364,78.7613846 246.11463,79.0716275 247.01132,79.0716275 Z M250.106855,65 L253,65 L253,81.6664525 L250.106855,81.6664525 L250.106855,80.2616202 C249.25476,81.4283083 248.043165,82 246.473443,82 C244.969584,82 243.669487,81.4050036 242.593048,80.1902498 C241.539249,78.9762241 241,77.4759885 241,75.7143041 C241,73.9518914 241.539249,72.4764169 242.593048,71.261663 C243.669487,70.0469091 244.969584,69.4286081 246.473443,69.4286081 C248.043165,69.4286081 249.25476,69.9995716 250.106855,71.1662597 L250.106855,65 Z" id="Fill-1"/>
                <path d="M265.005502,73.9308307 C264.657635,72.3861661 263.497604,71.6353841 262.128143,71.6353841 C260.526534,71.6353841 259.435367,72.4765381 259.086789,73.9308307 L265.005502,73.9308307 Z M259.133645,76.204032 C259.528368,77.6360792 260.619535,78.3409802 262.406437,78.3409802 C263.54304,78.3409802 264.425487,77.9544665 265.005502,77.2036844 L267.418565,78.5683003 C266.281962,80.1817866 264.588061,81 262.360291,81 C260.433533,81 258.901497,80.4313521 257.740756,79.2954466 C256.580725,78.1581509 256,76.7261036 256,74.9993048 C256,73.2947515 256.580725,71.8627042 257.717328,70.7267987 C258.854641,69.5672576 260.340531,69 262.128143,69 C263.821333,69 265.23765,69.5672576 266.328817,70.7267987 C267.443412,71.8856448 268,73.2947515 268,74.9993048 C268,75.3851234 267.953144,75.7730275 267.883571,76.204032 L259.133645,76.204032 Z" id="Fill-3"/>
                <polygon id="Fill-5" points="276.766847 69 280 69 275.674038 81 272.325962 81 268 69 271.233153 69 273.988508 77.4000734"/>
                <path d="M290.006212,73.9308307 C289.658345,72.3861661 288.497604,71.6353841 287.128143,71.6353841 C285.526534,71.6353841 284.436076,72.4765381 284.087499,73.9308307 L290.006212,73.9308307 Z M284.133645,76.204032 C284.529078,77.6360792 285.618825,78.3409802 287.407147,78.3409802 C288.54375,78.3409802 289.426197,77.9544665 290.006212,77.2036844 L292.419275,78.5683003 C291.282672,80.1817866 289.588771,81 287.360291,81 C285.434242,81 283.902207,80.4313521 282.741466,79.2954466 C281.581435,78.1581509 281,76.7261036 281,74.9993048 C281,73.2947515 281.581435,71.8627042 282.718038,70.7267987 C283.855351,69.5672576 285.341241,69 287.128143,69 C288.822043,69 290.23836,69.5672576 291.329527,70.7267987 C292.444122,71.8856448 293,73.2947515 293,74.9993048 C293,75.3851234 292.953854,75.7730275 292.884281,76.204032 L284.133645,76.204032 Z" id="Fill-7"/>
                <polygon id="Fill-9" points="295 81 298 81 298 64 295 64"/>
                <path d="M305.989592,78.1359055 C306.873598,78.1359055 307.599399,77.841154 308.189892,77.2502607 C308.779692,76.6586722 309.073898,75.9092805 309.073898,74.9993048 C309.073898,74.0907195 308.779692,73.3399374 308.189892,72.7497393 C307.599399,72.158846 306.873598,71.8633994 305.989592,71.8633994 C305.104198,71.8633994 304.378397,72.158846 303.789291,72.7497393 C303.221695,73.3399374 302.926102,74.0907195 302.926102,74.9993048 C302.926102,75.9092805 303.221695,76.6586722 303.789291,77.2502607 C304.378397,77.841154 305.104198,78.1359055 305.989592,78.1359055 M305.989592,81 C304.310397,81 302.881693,80.4313521 301.724297,79.2718109 C300.567596,78.1136601 300,76.6816128 300,74.9993048 C300,73.317692 300.567596,71.9092805 301.724297,70.7497393 C302.881693,69.5901981 304.310397,69 305.989592,69 C307.668093,69 309.096797,69.5901981 310.254192,70.7497393 C311.4102,71.9092805 312,73.317692 312,74.9993048 C312,76.6816128 311.4102,78.1136601 310.254192,79.2718109 C309.096797,80.4313521 307.668093,81 305.989592,81" id="Fill-11"/>
                <path d="M319.98868,78.6426062 C320.886742,78.6426062 321.626322,78.3323766 322.209479,77.7133739 C322.815276,77.0703393 323.106169,76.2612663 323.106169,75.2854267 C323.106169,74.3088588 322.815276,73.4997858 322.209479,72.8800548 C321.626322,72.2377485 320.886742,71.9289753 319.98868,71.9289753 C319.09199,71.9289753 318.351038,72.2377485 317.769253,72.8800548 C317.18541,73.4997858 316.893145,74.3088588 316.893145,75.2854267 C316.893145,76.2612663 317.18541,77.0703393 317.769253,77.7133739 C318.351038,78.3323766 319.09199,78.6426062 319.98868,78.6426062 M324.384998,70.8329764 C325.462123,72.0476782 326,73.5230894 326,75.2854267 C326,77.0470356 325.462123,78.547207 324.384998,79.7611806 C323.330513,80.9758825 322.02973,81.5708533 320.527243,81.5708533 C318.957521,81.5708533 317.74524,80.9991861 316.893145,79.832548 L316.893145,86 L314,86 L314,69.332805 L316.893145,69.332805 L316.893145,70.7375771 C317.74524,69.570939 318.957521,69 320.527243,69 C322.02973,69 323.330513,69.6182745 324.384998,70.8329764" id="Fill-12"/>
                <path d="M346,73.808855 L346,81 L343.044728,81 L343.044728,74.0195192 C343.044728,72.6184242 342.334817,71.8007617 341.119631,71.8007617 C339.767788,71.8007617 338.9899,72.7355392 338.9899,74.4394192 L338.9899,81 L336.034628,81 L336.034628,74.0195192 C336.034628,72.6184242 335.324017,71.8007617 334.109531,71.8007617 C332.80324,71.8007617 331.955272,72.7355392 331.955272,74.4394192 L331.955272,81 L329,81 L329,69.3263509 L331.955272,69.3263509 L331.955272,70.5639134 C332.642757,69.5134492 333.696059,69 335.140407,69 C336.538503,69 337.591805,69.5598667 338.256864,70.6803142 C339.012326,69.5598667 340.157433,69 341.670459,69 C344.304765,69 346,70.8909783 346,73.808855" id="Fill-13"/>
                <path d="M357.006212,73.9308307 C356.657635,72.3861661 355.497604,71.6353841 354.128143,71.6353841 C352.526534,71.6353841 351.435367,72.4765381 351.087499,73.9308307 L357.006212,73.9308307 Z M351.133645,76.204032 C351.528368,77.6360792 352.618115,78.3409802 354.406437,78.3409802 C355.54304,78.3409802 356.425487,77.9544665 357.006212,77.2036844 L359.418565,78.5683003 C358.281962,80.1817866 356.588771,81 354.360291,81 C352.433533,81 350.902207,80.4313521 349.741466,79.2954466 C348.580725,78.1581509 348,76.7261036 348,74.9993048 C348,73.2947515 348.580725,71.8627042 349.717328,70.7267987 C350.855351,69.5672576 352.340531,69 354.128143,69 C355.821333,69 357.23836,69.5672576 358.328817,70.7267987 C359.443412,71.8856448 360,73.2947515 360,74.9993048 C360,75.3851234 359.953854,75.7730275 359.883571,76.204032 L351.133645,76.204032 Z" id="Fill-14"/>
                <path d="M371.727029,70.28398 C372.574956,71.1473459 373,72.314925 373,73.8317067 L373,81 L369.960574,81 L369.960574,74.2059034 C369.960574,72.64199 369.042046,71.8014758 367.630035,71.8014758 C366.050887,71.8014758 365.038706,72.759105 365.038706,74.6957867 L365.038706,81 L362,81 L362,69.3263509 L365.038706,69.3263509 L365.038706,70.6346108 C365.768485,69.537015 366.945641,69 368.547842,69 C369.843867,69 370.902875,69.4199 371.727029,70.28398" id="Fill-15"/>
                <path d="M383,72.147911 L380.252766,72.147911 L380.252766,76.9896046 C380.252766,78.2481031 381.200985,78.2716065 383,78.177593 L383,80.9025591 C378.696942,81.3683531 377.115088,80.1803648 377.115088,76.9896046 L377.115088,72.147911 L375,72.147911 L375,69.2598458 L377.115088,69.2598458 L377.115088,66.9080846 L380.252766,66 L380.252766,69.2598458 L383,69.2598458 L383,72.147911 Z" id="Fill-16"/>
                <path d="M241.377068,102 L244.622162,102 L244.622162,90.1780321 L241.377068,90.1780321 L241.377068,102 Z M241,86.891862 C241,85.8750585 241.905733,85 242.987688,85 C244.093497,85 245,85.8750585 245,86.891862 C245,87.9079423 244.093497,88.7598588 242.987688,88.7598588 C241.905733,88.7598588 241,87.9079423 241,86.891862 Z" id="Fill-17"/>
                <path d="M256.728386,91.2833423 C257.575648,92.1474737 258,93.3144081 258,94.8319943 L258,102 L254.960375,102 L254.960375,95.2047849 C254.960375,93.6414926 254.041787,92.8009284 252.629683,92.8009284 C251.050432,92.8009284 250.038184,93.7586145 250.038184,95.6961257 L250.038184,102 L247,102 L247,90.3256561 L250.038184,90.3256561 L250.038184,91.6339939 C250.768732,90.5363328 251.945245,90 253.54755,90 C254.842939,90 255.902738,90.419925 256.728386,91.2833423" id="Fill-18"/>
                <polygon id="Fill-19" points="267.767355 90 271 90 266.674483 102 263.326213 102 259 90 262.233341 90 264.988855 98.4000734"/>
                <path d="M281.006212,94.9308307 C280.658345,93.3861661 279.497604,92.6346889 278.128143,92.6346889 C276.526534,92.6346889 275.435367,93.4758429 275.087499,94.9308307 L281.006212,94.9308307 Z M275.133645,97.204032 C275.529078,98.6353841 276.618825,99.3409802 278.407147,99.3409802 C279.54375,99.3409802 280.426197,98.9544665 281.006212,98.2036844 L283.419275,99.5683003 C282.282672,101.181091 280.588771,102 278.360291,102 C276.434242,102 274.902207,101.431352 273.741466,100.295447 C272.581435,99.1581509 272,97.7261036 272,95.9993048 C272,94.2947515 272.581435,92.862009 273.718038,91.7267987 C274.855351,90.5672576 276.341241,90 278.128143,90 C279.822043,90 281.23836,90.5672576 282.329527,91.7267987 C283.444122,92.8856448 284,94.2947515 284,95.9993048 C284,96.3851234 283.953854,96.7723323 283.884281,97.204032 L275.133645,97.204032 Z" id="Fill-20"/>
                <path d="M290.342166,94.7945777 C291.941601,95.1359055 294.021269,95.9318735 293.999836,98.3635732 C293.999836,99.5224192 293.583232,100.431005 292.729263,101.067084 C291.897396,101.680918 290.846511,102 289.59871,102 C287.342891,102 285.810434,101.090719 285,99.2950991 L287.452735,97.8623566 C287.781597,98.8404588 288.482187,99.3409802 289.59871,99.3409802 C290.60606,99.3409802 291.109734,99.0218978 291.109734,98.3635732 C291.109734,97.7497393 290.232992,97.4091067 289.116469,97.1129649 C287.496271,96.6819604 285.460139,95.9763643 285.460139,93.6127911 C285.460139,92.499131 285.85397,91.6134863 286.642971,90.977407 C287.452735,90.317692 288.437312,90 289.620143,90 C291.393051,90 292.926848,90.8633994 293.780818,92.4087591 L291.371618,93.7719847 C291.021323,92.9989572 290.430577,92.6124435 289.620143,92.6124435 C288.897451,92.6124435 288.34957,92.9767119 288.34957,93.5446646 C288.34957,94.1584984 289.226313,94.4998262 290.342166,94.7945777" id="Fill-21"/>
                <path d="M303,93.1482022 L300.252766,93.1482022 L300.252766,97.9901251 C300.252766,99.2479709 301.200242,99.2721876 303,99.1781697 L303,101.902553 C298.696942,102.368369 297.115088,101.180324 297.115088,97.9901251 L297.115088,93.1482022 L295,93.1482022 L295,90.2592879 L297.115088,90.2592879 L297.115088,87.9074154 L300.252766,87 L300.252766,90.2592879 L303,90.2592879 L303,93.1482022 Z" id="Fill-22"/>
                <path d="M322,94.8091412 L322,102 L319.044149,102 L319.044149,95.0198179 C319.044149,93.6186395 318.334268,92.8009284 317.119832,92.8009284 C315.768045,92.8009284 314.989488,93.7357615 314.989488,95.4390287 L314.989488,102 L312.034338,102 L312.034338,95.0198179 C312.034338,93.6186395 311.324457,92.8009284 310.10932,92.8009284 C308.803083,92.8009284 307.955851,93.7357615 307.955851,95.4390287 L307.955851,102 L305,102 L305,90.3263703 L307.955851,90.3263703 L307.955851,91.5632923 C308.643308,90.5134797 309.697267,90 311.140154,90 C312.538192,90 313.591451,90.5599 314.256482,91.6804142 C315.011913,90.5599 316.156973,90 317.669937,90 C320.304135,90 322,91.8910909 322,94.8091412" id="Fill-23"/>
                <path d="M333.006212,94.9308307 C332.658345,93.3861661 331.497604,92.6346889 330.128143,92.6346889 C328.526534,92.6346889 327.435367,93.4758429 327.087499,94.9308307 L333.006212,94.9308307 Z M327.133645,97.204032 C327.529078,98.6353841 328.618825,99.3409802 330.407147,99.3409802 C331.54375,99.3409802 332.426197,98.9544665 333.006212,98.2036844 L335.419275,99.5683003 C334.282672,101.181091 332.588771,102 330.360291,102 C328.434242,102 326.902207,101.431352 325.741466,100.295447 C324.581435,99.1581509 324,97.7261036 324,95.9993048 C324,94.2947515 324.581435,92.862009 325.718038,91.7267987 C326.855351,90.5672576 328.341241,90 330.128143,90 C331.822043,90 333.23836,90.5672576 334.329527,91.7267987 C335.444122,92.8856448 336,94.2947515 336,95.9993048 C336,96.3851234 335.953854,96.7723323 335.884281,97.204032 L327.133645,97.204032 Z" id="Fill-24"/>
                <path d="M348.728386,91.2833423 C349.575648,92.1474737 350,93.3144081 350,94.8319943 L350,102 L346.960375,102 L346.960375,95.2047849 C346.960375,93.6414926 346.041787,92.8009284 344.629683,92.8009284 C343.050432,92.8009284 342.038184,93.7586145 342.038184,95.6961257 L342.038184,102 L339,102 L339,90.3256561 L342.038184,90.3256561 L342.038184,91.6339939 C342.768732,90.5363328 343.945245,90 345.54755,90 C346.842939,90 347.902738,90.419925 348.728386,91.2833423" id="Fill-25"/>
                <path d="M359,93.1482022 L356.251766,93.1482022 L356.251766,97.9901251 C356.251766,99.2479709 357.200818,99.2721876 359,99.1781697 L359,101.902553 C354.695054,102.368369 353.115284,101.180324 353.115284,97.9901251 L353.115284,93.1482022 L351,93.1482022 L351,90.2592879 L353.115284,90.2592879 L353.115284,87.9074154 L356.251766,87 L356.251766,90.2592879 L359,90.2592879 L359,93.1482022 Z" id="Fill-26"/>
                <path d="M259,115.809141 L259,123 L256.044728,123 L256.044728,116.019104 C256.044728,114.61864 255.334817,113.800928 254.119631,113.800928 C252.767788,113.800928 251.9899,114.735761 251.9899,116.439029 L251.9899,123 L249.033927,123 L249.033927,116.019104 C249.033927,114.61864 248.324017,113.800928 247.109531,113.800928 C245.80324,113.800928 244.955272,114.735761 244.955272,116.439029 L244.955272,123 L242,123 L242,111.32637 L244.955272,111.32637 L244.955272,112.563292 C245.642757,111.51348 246.696059,111 248.140407,111 C249.538503,111 250.591805,111.5599 251.256163,112.680414 C252.012326,111.5599 253.157433,111 254.670459,111 C257.304765,111 259,112.891091 259,115.809141" id="Fill-27"/>
                <path d="M266.98868,120.204727 C267.886742,120.204727 268.627008,119.908585 269.209479,119.317692 C269.815276,118.703858 270.106855,117.931526 270.106855,117 C270.106855,116.067084 269.815276,115.295447 269.209479,114.703858 C268.627008,114.090024 267.886742,113.795273 266.98868,113.795273 C266.09199,113.795273 265.35241,114.090024 264.769253,114.703858 C264.18541,115.295447 263.893145,116.067084 263.893145,117 C263.893145,117.931526 264.18541,118.703858 264.769253,119.317692 C265.35241,119.908585 266.09199,120.204727 266.98868,120.204727 Z M270.106855,111.317692 L273,111.317692 L273,122.681613 L270.106855,122.681613 L270.106855,121.340633 C269.232805,122.453597 268.021211,123 266.451489,123 C264.94763,123 263.668801,122.431352 262.593734,121.271811 C261.539249,120.112965 261,118.681613 261,117 C261,115.317692 261.539249,113.908585 262.593734,112.749044 C263.668801,111.590893 264.94763,111 266.451489,111 C268.021211,111 269.232805,111.545012 270.106855,112.658672 L270.106855,111.317692 Z" id="Fill-28"/>
                <path d="M285.727749,112.28398 C286.574956,113.14806 287,114.314925 287,115.832421 L287,123 L283.960574,123 L283.960574,116.205189 C283.960574,114.64199 283.042046,113.801476 281.629314,113.801476 C280.050887,113.801476 279.037985,114.759105 279.037985,116.696501 L279.037985,123 L276,123 L276,111.326351 L279.037985,111.326351 L279.037985,112.634611 C279.768485,111.537015 280.945641,111 282.547122,111 C283.842426,111 284.902875,111.4199 285.727749,112.28398" id="Fill-29"/>
                <path d="M294.988338,120.204727 C295.886348,120.204727 296.626572,119.908585 297.20901,119.317692 C297.814772,118.703858 298.105648,117.931526 298.105648,117 C298.105648,116.067084 297.814772,115.295447 297.20901,114.703858 C296.626572,114.090024 295.886348,113.795273 294.988338,113.795273 C294.091699,113.795273 293.352161,114.090024 292.769037,114.703858 C292.185228,115.295447 291.89298,116.067084 291.89298,117 C291.89298,117.931526 292.185228,118.703858 292.769037,119.317692 C293.352161,119.908585 294.091699,120.204727 294.988338,120.204727 Z M298.105648,111.317692 L301,111.317692 L301,122.681613 L298.105648,122.681613 L298.105648,121.340633 C297.231649,122.453597 296.02081,123 294.451178,123 C292.947405,123 291.670021,122.431352 290.592271,121.271811 C289.539218,120.112965 289,118.681613 289,117 C289,115.317692 289.539218,113.908585 290.592271,112.749044 C291.670021,111.590893 292.947405,111 294.451178,111 C296.02081,111 297.231649,111.545012 298.105648,112.658672 L298.105648,111.317692 Z" id="Fill-30"/>
                <path d="M311.276501,114.712143 C310.692624,114.105714 309.953002,113.802143 309.034305,113.802143 C308.114237,113.802143 307.374614,114.105714 306.768782,114.712143 C306.185592,115.295714 305.892624,116.066429 305.892624,116.978571 C305.892624,118.846429 307.216123,120.176429 309.034305,120.176429 C310.851115,120.176429 312.174614,118.846429 312.174614,116.978571 C312.174614,116.066429 311.882333,115.295714 311.276501,114.712143 Z M312.174614,111.326429 L315,111.326429 L315,122.441429 C315,124.240714 314.417496,125.618571 313.27307,126.575714 C312.128645,127.532143 310.761235,128 309.146827,128 C306.722813,128 304.816123,127.018571 303.829503,125.150714 L306.297427,123.679286 C306.857976,124.777143 307.845283,125.315 309.235334,125.315 C311.053516,125.315 312.174614,124.286429 312.174614,122.441429 L312.174614,121.180714 C311.321784,122.372143 310.133448,122.956429 308.585592,122.956429 C306.993139,122.956429 305.668268,122.372143 304.593139,121.227857 C303.538593,120.059286 303,118.635714 303,116.978571 C303,115.319286 303.538593,113.918571 304.615094,112.751429 C305.691595,111.582857 307.015094,111 308.585592,111 C310.133448,111 311.321784,111.582857 312.174614,112.774286 L312.174614,111.326429 Z" id="Fill-31"/>
                <path d="M327.006212,115.931526 C326.658345,114.386861 325.497604,113.635384 324.128143,113.635384 C322.526534,113.635384 321.435367,114.476538 321.087499,115.931526 L327.006212,115.931526 Z M321.133645,118.204727 C321.529078,119.636079 322.618825,120.34098 324.407147,120.34098 C325.54375,120.34098 326.426197,119.953771 327.006212,119.20438 L329.419275,120.5683 C328.282672,122.181787 326.588771,123 324.360291,123 C322.434242,123 320.902207,122.432047 319.741466,121.296142 C318.581435,120.158846 318,118.726799 318,117 C318,115.295447 318.581435,113.862704 319.718038,112.727494 C320.855351,111.567953 322.341241,111 324.128143,111 C325.822043,111 327.23836,111.567953 328.329527,112.727494 C329.444122,113.88634 330,115.295447 330,117 C330,117.385819 329.953854,117.771637 329.884281,118.204727 L321.133645,118.204727 Z" id="Fill-32"/>
                <path d="M349,115.809141 L349,123 L346.044728,123 L346.044728,116.019104 C346.044728,114.61864 345.334817,113.800928 344.119631,113.800928 C342.767788,113.800928 341.9899,114.735761 341.9899,116.439029 L341.9899,123 L339.033927,123 L339.033927,116.019104 C339.033927,114.61864 338.324017,113.800928 337.109531,113.800928 C335.80324,113.800928 334.955272,114.735761 334.955272,116.439029 L334.955272,123 L332,123 L332,111.32637 L334.955272,111.32637 L334.955272,112.563292 C335.642757,111.51348 336.697461,111 338.139706,111 C339.538503,111 340.591104,111.5599 341.256163,112.680414 C342.012326,111.5599 343.157433,111 344.670459,111 C347.304065,111 349,112.891091 349,115.809141" id="Fill-33"/>
                <path d="M360.006212,115.931526 C359.657635,114.386861 358.497604,113.635384 357.128143,113.635384 C355.526534,113.635384 354.435367,114.476538 354.086789,115.931526 L360.006212,115.931526 Z M354.133645,118.204727 C354.528368,119.636079 355.618115,120.34098 357.406437,120.34098 C358.54304,120.34098 359.425487,119.953771 360.006212,119.20438 L362.418565,120.5683 C361.281962,122.181787 359.588771,123 357.360291,123 C355.433533,123 353.901497,122.432047 352.741466,121.296142 C351.580725,120.158846 351,118.726799 351,117 C351,115.295447 351.580725,113.862704 352.717328,112.727494 C353.854641,111.567953 355.340531,111 357.128143,111 C358.821333,111 360.23836,111.567953 361.328817,112.727494 C362.443412,113.88634 363,115.295447 363,117 C363,117.385819 362.953854,117.771637 362.883571,118.204727 L354.133645,118.204727 Z" id="Fill-34"/>
                <path d="M375.727029,112.28398 C376.574956,113.14806 377,114.314925 377,115.832421 L377,123 L373.960574,123 L373.960574,116.205189 C373.960574,114.64199 373.042046,113.801476 371.630035,113.801476 C370.050887,113.801476 369.038706,114.759105 369.038706,116.696501 L369.038706,123 L366,123 L366,111.326351 L369.038706,111.326351 L369.038706,112.634611 C369.768485,111.537015 370.945641,111 372.547842,111 C373.843867,111 374.902875,111.4199 375.727029,112.28398" id="Fill-35"/>
                <path d="M386,114.147196 L383.251278,114.147196 L383.251278,118.991737 C383.251278,120.248098 384.200242,120.271602 386,120.178301 L386,122.902553 C381.695454,123.368347 380.115088,122.180359 380.115088,118.991737 L380.115088,114.147196 L378,114.147196 L378,111.259845 L380.115088,111.259845 L380.115088,108.908797 L383.251278,108 L383.251278,111.259845 L386,111.259845 L386,114.147196 Z" id="Fill-36"/>
                <path d="M216,64.4058803 L216,122.973054 L185.567682,122.973054 L185.567682,77.3249222 L170.110826,61.2688343 L154.68291,77.2476306 L154.651147,122.9766 L124.218123,122.9766 L124.218123,77.2476306 C124.218123,68.226496 117.219551,61.2759253 108.812088,61.2645797 L108.812088,61.1965064 L92.9606583,61.1965064 L92.9606583,30.9804566 L62.6003379,30.9804566 L62.6003379,61.1965064 L45.8531752,61.1965064 C37.3447752,61.1965064 30.3596145,67.9442753 30.3596145,76.4910239 C30.3596145,85.0384815 37.3447752,92.0557074 45.8531752,92.0557074 L62.6003379,92.0557074 L62.6003379,61.1965064 L92.9606583,61.1965064 L92.9606583,123 L45.8531752,122.946818 C20.5086745,122.946818 0,101.952577 0,76.4910239 C0,51.1202352 20.5086745,30.7755275 45.8531752,30.7755275 L62.2382333,30.7748184 L62.2382333,0 L93.3347625,0 L93.3347625,30.7748184 L108.79303,30.7677274 C122.233959,30.7677274 134.225763,36.6355067 142.626167,45.9154618 L170.110826,18.3088897 L216,64.4058803 Z" id="Fill-37"/>
            </g>
        </g>
    </g>
</svg>